<?xml version="1.0" encoding="UTF-8" standalone="no"?>
<!-- Created with Inkscape (http://www.inkscape.org/) -->

<svg
   width="19.792421mm"
   height="19.79295mm"
   viewBox="0 0 19.792421 19.79295"
   version="1.1"
   id="svg1"
   inkscape:version="1.3.2 (091e20e, 2023-11-25, custom)"
   sodipodi:docname="umr_logo2.svg"
   xmlns:inkscape="http://www.inkscape.org/namespaces/inkscape"
   xmlns:sodipodi="http://sodipodi.sourceforge.net/DTD/sodipodi-0.dtd"
   xmlns="http://www.w3.org/2000/svg"
   xmlns:svg="http://www.w3.org/2000/svg">
  <sodipodi:namedview
     id="namedview1"
     pagecolor="#ffffff"
     bordercolor="#000000"
     borderopacity="0.25"
     inkscape:showpageshadow="2"
     inkscape:pageopacity="0.0"
     inkscape:pagecheckerboard="0"
     inkscape:deskcolor="#d1d1d1"
     inkscape:document-units="mm"
     inkscape:zoom="1.5839366"
     inkscape:cx="323.24526"
     inkscape:cy="276.84189"
     inkscape:window-width="3840"
     inkscape:window-height="2036"
     inkscape:window-x="3828"
     inkscape:window-y="-12"
     inkscape:window-maximized="1"
     inkscape:current-layer="layer1" />
  <defs
     id="defs1" />
  <g
     inkscape:label="Ebene 1"
     inkscape:groupmode="layer"
     id="layer1"
     transform="translate(-19.579167,-75.141667)">
    <g
       id="g5"
       transform="matrix(0.26458333,0,0,0.26458333,3.2927398,75.141667)">
	<path
   fill="#ffffff"
   d="m 62.73,37.405 c 0,19.976 16.252,36.228 36.228,36.228 19.978,0 36.229,-16.252 36.229,-36.228 0,-19.977 -16.252,-36.229 -36.229,-36.229 -19.976,0 -36.228,16.252 -36.228,36.229 z m 0.625,0 c 0,-19.632 15.972,-35.604 35.603,-35.604 19.633,0 35.604,15.972 35.604,35.604 0,19.631 -15.972,35.603 -35.604,35.603 -19.631,0 -35.603,-15.972 -35.603,-35.603 z"
   id="path1" />

	<path
   fill="#ffffff"
   d="m 61.555,37.405 c 0,20.624 16.779,37.403 37.403,37.403 20.625,0 37.403,-16.779 37.403,-37.403 C 136.361,16.78 119.583,0 98.958,0 78.333,0 61.555,16.78 61.555,37.405 Z m 0.461,0 c 0,-20.371 16.572,-36.944 36.942,-36.944 20.37,0 36.942,16.573 36.942,36.944 0,20.37 -16.572,36.942 -36.942,36.942 C 78.588,74.348 62.016,57.775 62.016,37.405 Z"
   id="path2" />

	<g
   id="g4">
		<path
   fill="#ffffff"
   d="m 79.29,37.282 c 0,11.037 8.979,20.017 20.017,20.017 11.038,0 20.018,-8.979 20.018,-20.017 0,-11.037 -8.979,-20.016 -20.018,-20.016 C 88.27,17.267 79.29,26.246 79.29,37.282 Z m 0.465,0 c 0,-10.78 8.771,-19.551 19.552,-19.551 10.781,0 19.553,8.771 19.553,19.551 0,10.781 -8.771,19.552 -19.553,19.552 -10.782,0 -19.552,-8.771 -19.552,-19.552 z"
   id="path3" />

		<path
   fill="#ffffff"
   d="m 80.467,37.282 c 0,10.389 8.452,18.841 18.84,18.841 10.388,0 18.84,-8.452 18.84,-18.841 0,-10.388 -8.451,-18.839 -18.84,-18.839 -10.389,0 -18.84,8.452 -18.84,18.839 z m 0.437,0 c 0,-10.146 8.255,-18.401 18.403,-18.401 10.146,0 18.402,8.255 18.402,18.401 0,10.147 -8.256,18.403 -18.402,18.403 C 89.16,55.686 80.904,47.43 80.904,37.282 Z"
   id="path4" />

	</g>

	<path
   fill="#ffffff"
   d="m 72.752,37.52 c 0,10.173 5.688,19.254 14.846,23.699 -0.012,-0.007 0.266,0.152 0.266,0.152 0.022,0.011 1.975,0.832 1.975,0.832 0,0 2.233,0.764 2.233,0.764 l 0.104,-0.449 -2.163,-0.74 c 0,0 -1.939,-0.815 -1.943,-0.817 0,-10e-4 -0.258,-0.148 -0.258,-0.148 -9.011,-4.374 -14.601,-13.297 -14.601,-23.292 0,-14.26 11.602,-25.862 25.863,-25.862 14.262,0 25.864,11.602 25.864,25.862 0,11.433 -7.657,21.646 -18.621,24.838 l 0.129,0.441 c 11.159,-3.248 18.953,-13.644 18.953,-25.279 0,-14.514 -11.81,-26.322 -26.325,-26.322 C 84.561,11.198 72.752,23.006 72.752,37.52 Z"
   id="path5" />

</g>
    <g
       id="g43"
       transform="matrix(0.26458333,0,0,0.26458333,3.2927398,75.141667)">
	<path
   fill="none"
   stroke="#90929c"
   stroke-width="0.407"
   d="M 94.126,34.686"
   id="path40" />

	<path
   fill="none"
   stroke="#90929c"
   stroke-width="0.407"
   d="M 100.196,42.711"
   id="path41" />

	<path
   fill="#ffffff"
   d="m 95.788,30.225 c 0.219,-0.108 0.327,-0.19 0.82,0.056 0.313,0.153 0.766,-0.056 1.182,0.272 0.201,0.166 0.44,0.094 0.44,0.094 0,0 0.061,-0.107 -0.035,-0.181 -0.316,-0.245 -1.026,-0.773 -1.488,-0.991 -0.335,-0.159 -0.722,-0.327 -0.974,-0.126 -0.548,0.439 -1.1,1.213 -1.157,1.407 -0.032,0.113 0.062,0.37 0.062,0.37 0,0 -0.075,0.059 -0.11,0.406 -0.07,0.639 0.342,0.656 0.412,0.656 0,0 0.122,-0.011 0.692,-0.053 0.112,-0.008 1.734,-0.297 1.734,-0.297 0,0 0.615,-0.115 0.457,-0.287 -0.058,-0.062 -0.563,-0.224 -0.751,-0.289 -0.203,-0.071 -0.801,-0.563 -0.904,-0.599 -0.166,-0.058 -0.493,0.065 -0.545,0.054 0,0 -0.274,0.039 -0.274,-0.164 0.07,-0.282 0.204,-0.209 0.439,-0.328 z m -0.182,1.318 c 0,0 0.022,-0.076 0.041,-0.214 0.02,-0.137 -0.034,-0.25 -0.034,-0.25 0.287,0.029 0.426,0.167 0.703,0.29 -0.452,0.063 -0.53,0.154 -0.71,0.174 z"
   id="path42" />

	<path
   fill="#ffffff"
   d="m 114.575,45.246 c -0.436,-0.241 -0.377,-0.631 -0.568,-0.828 -0.467,-0.334 -1.24,-1.008 -1.24,-1.008 -0.149,-0.137 -2.238,-1.557 -4.135,-3.209 -1.178,-1.023 -2.066,-1.674 -2.619,-1.746 -0.91,-0.114 -0.498,-1.065 -0.537,-1.294 -0.066,-0.376 -0.473,-0.305 -0.644,-0.511 -0.175,-0.204 0.08,-0.749 0.032,-0.929 -0.05,-0.176 -0.232,-0.197 -0.435,-0.209 -0.169,-0.01 -0.29,-0.022 -0.313,-0.24 -0.03,-0.307 0.493,-1.418 1.29,-1.861 0.342,-0.19 0.605,-0.076 0.911,-0.645 0.435,-0.02 0.917,0.069 1.593,-0.113 0.834,-0.228 1.568,-0.979 1.85,-1.563 0.223,-0.459 0.229,-1.003 0.22,-1.235 0.087,-0.044 0.174,-0.089 0.249,-0.143 0.313,-0.218 0.859,-1.25 0.447,-2.906 -0.427,-1.715 -1.867,-2.301 -2.16,-2.405 0.008,-0.651 -0.674,-1.238 -1.548,-1.807 -0.46,-0.303 -1.163,-0.426 -1.686,-0.663 -0.291,-0.131 -0.346,-0.392 -0.701,-0.512 -0.432,-0.147 -0.632,-0.039 -0.798,-0.136 -0.218,-0.125 -0.384,-0.446 -1.039,-0.594 -0.912,-0.204 -0.943,0.135 -1.523,0.135 -0.58,0 -1.699,-0.715 -2.833,-0.513 -0.694,0.125 -1.306,0.866 -1.507,0.995 0,0 -0.643,0.396 -1.369,0.547 -0.369,0.076 -0.752,0.026 -1.084,0.099 -0.404,0.086 -0.241,0.538 -0.744,0.504 -0.43,-0.029 -0.772,-0.445 -1.427,-0.655 -0.707,-0.223 -1.196,0.172 -1.504,0.426 -0.204,0.166 -0.593,-0.04 -1.496,0.593 -0.911,0.637 -0.852,1.781 -0.852,1.781 0,0 -0.755,0.27 -1.363,0.849 -0.548,0.524 -0.592,1.362 -0.592,1.362 l -0.108,0.245 c 0,0 -0.647,0.674 -0.877,1.51 -0.228,0.834 -0.301,1.556 0.08,2.414 l 0.081,0.23 c 0,0 0.194,0.699 0.943,1.309 0.752,0.607 1.348,1.01 2.012,1.389 0.377,0.216 0.525,0.271 0.621,0.271 l 0.35,0.053 c 0,0 0.513,0.458 1.902,0.486 0.282,0.004 1.248,-0.04 1.81,10e-4 0.293,0.021 0.345,0.269 0.387,0.392 0.072,0.234 0.167,0.26 0.38,0.416 -0.052,0.253 0.046,0.692 0.253,0.744 0.204,0.053 0.361,-0.08 0.361,-0.08 -0.15,-0.178 -0.184,-0.294 -0.16,-0.342 0.03,-0.182 0.1,-0.242 0.272,-0.263 0.22,-0.026 0.448,0.105 0.664,0.07 0.216,-0.033 0.419,-0.151 0.404,-0.253 -0.036,-0.207 -0.393,-0.21 -0.604,-0.271 -0.117,-0.031 -0.354,0.161 -0.758,0.102 -0.402,-0.062 -0.399,-0.18 -0.461,-0.312 -0.076,-0.165 -0.114,-0.488 0.149,-0.552 0.121,-0.032 0.175,-0.026 0.292,-0.004 0.195,0.047 0.271,0.108 0.314,0.141 0.113,0.092 0.281,0.326 0.417,0.201 0.138,-0.125 0.024,-0.181 -0.079,-0.284 -0.102,-0.103 -0.208,-0.413 -0.217,-0.414 -0.08,-0.108 -0.194,-0.219 -0.272,-0.291 -0.097,-0.091 -0.302,-0.31 -0.464,-0.444 -0.165,-0.135 -0.24,-0.048 -0.115,0.089 0.125,0.141 0.2,0.235 0.18,0.335 -0.032,0.208 -0.252,0.17 -0.504,0.226 -0.251,0.058 -0.506,0.366 -0.822,0.291 -0.128,-0.03 -0.144,-0.266 -0.145,-0.291 -0.004,-0.073 0.09,-0.254 0.147,-0.45 0.104,-0.342 0.118,-0.608 0.271,-0.944 0.234,-0.52 0.48,-0.891 0.48,-0.891 0.093,-0.187 0.195,-0.337 0.144,-1.016 -0.046,-0.653 -0.024,-1.226 0.169,-1.807 0.166,-0.494 0.722,-1.417 1.443,-1.896 0.378,0.076 0.777,0.609 1.072,0.728 0.441,0.179 1.283,0.206 1.673,0.435 0.231,0.201 0.071,0.603 0.262,1.037 0.267,0.609 1.038,0.939 1.241,1.177 0.35,0.405 0.494,0.378 0.494,0.378 0.002,-0.002 0.344,0.019 0.379,0.228 0.025,0.141 -0.136,0.389 -0.076,0.532 0.084,0.203 -0.02,0.729 0.191,0.644 0.189,-0.076 0.234,-1.23 0.416,-0.987 0.168,0.227 0.66,0.42 0.607,0.758 -0.084,0.528 -0.112,0.443 -0.38,0.722 -0.182,0.189 -0.353,0.375 -0.417,0.683 -0.065,0.308 -0.721,-0.039 -0.721,-0.039 0,0 0.398,0.521 0.379,1.028 -0.018,0.507 -0.189,1.228 -0.311,1.651 -0.15,0.526 -0.469,1.188 -1.019,1.553 -0.638,0.424 -1.216,0.494 -2.177,0.664 -0.912,0.162 -1.568,0.19 -1.966,-0.006 -0.18,-0.093 -0.523,-0.357 -0.485,-0.696 0.054,-0.458 0.691,-0.779 0.691,-0.779 0,0 -0.096,-0.081 -0.231,-0.094 -0.174,-0.019 -0.463,0.176 -0.578,0.295 -0.251,0.267 -0.265,0.486 -0.259,0.684 0.015,0.49 0.434,0.818 0.781,0.918 0.298,0.084 0.516,0.111 0.708,0.111 0.739,0.014 1.16,0.503 1.215,0.766 0.059,0.261 0.012,0.338 -0.045,0.432 -3.001,-0.094 -5.908,1.878 -6.57,2.49 l -0.091,0.082 c -0.859,0.788 -2.518,2.604 -3.431,3.619 0,0.002 -1.398,1.325 -1.604,1.649 -0.205,0.323 -0.082,0.569 -0.249,0.921 -0.168,0.353 -0.514,0.392 -0.487,0.834 0.03,0.441 0.317,1.051 0.623,1.34 1.202,1.135 2.716,2.721 4.255,3.57 1.54,0.846 4.079,1.941 6.129,2.315 5.551,1.007 8.84,0.642 13.741,-2.142 4.899,-2.782 7.206,-7.207 7.206,-7.207 0,0 -1.031,-1.556 -1.781,-1.97 z m -5.28,-13.999 c -0.354,0.456 -0.95,0.772 -1.231,0.913 -0.492,0.246 -0.526,0 -0.526,0 0.139,-0.247 0.457,-0.209 0.844,-0.667 0.385,-0.459 0.597,-0.493 0.664,-0.738 0.072,-0.246 -0.031,-0.529 0.144,-0.67 0.177,-0.137 0.421,-0.419 0.493,-0.032 0.067,0.384 -0.037,0.737 -0.388,1.194 z m -2.329,-5.273 c 0.235,-0.331 1.181,-1.324 1.513,-1.229 0.33,0.096 1.086,0.568 1.418,1.184 0.329,0.614 0.565,1.512 0.426,1.606 -0.143,0.095 -0.709,-1.417 -1.419,-1.843 -0.817,-0.49 -1.258,0.262 -1.514,0.425 -0.52,0.329 -0.424,-0.143 -0.424,-0.143 z m -17.134,2.755 c -0.31,-0.038 -1.466,-0.385 -1.907,-0.654 -0.445,-0.27 -0.85,-0.521 -1.022,-0.462 -0.173,0.057 -0.654,0.654 -0.792,1.521 -0.135,0.868 -0.229,1.85 0.31,2.294 0.539,0.442 0.636,0.309 0.75,0.462 0.115,0.153 0.695,0.367 0.83,0.579 0.134,0.211 0.102,0.467 0.192,0.537 0.27,0.213 0.327,0.213 0.327,0.213 -0.057,0.135 -0.213,0.232 -0.366,0.116 -0.153,-0.116 -1.331,-0.77 -1.792,-1.465 -0.461,-0.691 -0.885,-1.656 -0.788,-2.58 0.095,-0.928 1.058,-2.005 1.193,-2.255 0.135,-0.25 0.021,-0.791 0.347,-1.233 0.327,-0.444 1.097,-0.905 1.349,-0.692 0.25,0.212 -0.597,0.5 -0.828,0.962 -0.233,0.462 -0.425,0.943 -0.137,1.155 0.29,0.213 0.773,0.579 1.582,0.811 0.568,0.163 1.115,0.192 1.155,0.308 0.039,0.113 -0.095,0.42 -0.403,0.383 z m 3.13,-5.679 c -0.084,0.149 -0.159,-0.053 -0.236,0.055 -0.073,0.106 0.13,0.362 0.032,0.47 -0.095,0.105 -0.148,-0.014 -0.235,0.116 -0.084,0.129 0.28,0.406 0.183,0.567 -0.096,0.159 -0.213,0.063 -0.32,0.159 -0.106,0.098 -0.021,0.184 0.127,0.388 0.15,0.201 0.212,0.692 -0.107,0.692 -0.321,0 -0.363,-0.598 -0.536,-0.61 -0.169,-0.009 -0.18,0.888 -0.414,0.931 -0.236,0.042 0,-0.289 -0.03,-0.417 -0.037,-0.128 -0.088,-0.202 -0.377,-0.202 -0.288,0 -0.315,-0.396 -0.586,-0.375 -0.396,0.032 -0.064,0.534 -0.247,0.555 -0.488,0.059 -0.114,-1.011 -0.383,-1.186 -0.547,-0.353 -0.642,0.298 -0.973,0.321 -0.415,0.025 0.171,-1.08 0.63,-1.507 0.458,-0.427 0.854,-0.299 0.961,-0.202 0.108,0.096 0.044,0.331 0.085,0.512 0.042,0.182 0.245,0.364 0.341,0.374 0.099,0.01 0.022,-0.116 -0.031,-0.299 -0.054,-0.181 -0.086,-0.149 0.021,-0.523 0.108,-0.374 0.909,-0.918 1.165,-0.886 0.255,0.031 0.363,0.191 0.545,0.491 0.181,0.299 0.471,0.427 0.385,0.576 z m 17.365,23.051 c 0.084,0.067 0.116,0.2 -0.085,0.337 -0.2,0.133 -0.739,0.452 -1.376,1.024 -0.639,0.57 -1.174,1.189 -1.547,1.611 -0.368,0.419 -0.586,0.688 -0.756,0.435 -0.166,-0.251 -1.012,-1.657 -1.578,-2.5 -0.611,-0.913 -0.992,-1.566 -1.801,-2.063 -0.722,-0.442 -1.159,-0.454 -1.159,-0.454 0.089,-0.12 0.458,-0.252 0.938,-0.017 0.508,0.251 0.992,0.602 1.631,1.477 0.639,0.871 1.5,2.298 1.734,2.668 0.234,0.367 0.354,0.639 0.588,0.419 0.236,-0.218 0.717,-0.831 1.307,-1.353 0.586,-0.521 1.311,-1.25 1.629,-1.436 0.318,-0.184 0.39,-0.214 0.475,-0.148 z m -1.573,-1.935 c 0,0 -0.999,0.899 -1.298,1.1 -0.3,0.198 -0.499,0.101 -0.7,-0.2 -0.197,-0.302 -0.797,-0.999 -0.797,-0.999 0,0 0.5,0.1 0.998,-0.199 0.499,-0.297 0.899,-0.598 0.899,-0.598 0,0 0.197,0.4 0.298,0.699 0.1,0.299 0.6,0.197 0.6,0.197 z m -4.004,-1.247 c 0.077,-0.155 0.596,-0.18 0.801,-0.31 0.207,-0.129 0.362,-0.388 0.517,-0.439 0.157,-0.054 0.259,-0.182 0.337,-0.283 0.077,-0.104 0.232,-0.492 0.311,-0.625 0.078,-0.127 0.336,-0.204 0.387,-0.307 0.053,-0.105 0.156,-0.672 0.156,-0.776 0,-0.103 -0.025,-0.388 0.076,-0.388 0.104,0 0.414,0.388 0.414,0.518 0,0.129 0.156,0.232 0.103,0.362 -0.05,0.128 -0.257,0.206 -0.257,0.31 0,0.102 0.361,0.619 0.257,0.725 -0.103,0.104 -0.412,-0.054 -0.463,0.025 -0.054,0.078 0.542,0.697 0.438,0.828 -0.104,0.127 -0.672,-0.078 -0.749,0.051 -0.077,0.13 0.155,0.594 0.024,0.725 -0.129,0.129 -0.465,-0.182 -0.57,-0.103 -0.102,0.074 0.027,0.438 -0.18,0.487 -0.205,0.053 -0.231,-0.281 -0.413,-0.18 -0.181,0.104 -0.233,0.156 -0.361,0.156 -0.13,0 -0.363,-0.156 -0.363,-0.156 -0.154,-0.154 -0.543,-0.465 -0.465,-0.62 z m -0.218,0.664 c 0.102,-0.085 0.336,-0.037 0.589,0.183 0.25,0.219 1.292,1.513 1.544,1.797 0.252,0.285 0.355,0.453 0.539,0.303 0.185,-0.148 0.787,-0.707 0.89,-0.805 0.1,-0.1 0.302,-0.203 0.368,-0.1 0.068,0.1 0.021,0.181 -0.188,0.375 -0.193,0.184 -0.752,0.73 -0.955,0.865 -0.199,0.135 -0.338,0.156 -0.624,-0.146 -0.286,-0.301 -0.969,-1.191 -1.421,-1.645 -0.455,-0.451 -0.623,-0.574 -0.68,-0.625 -0.086,-0.082 -0.062,-0.202 -0.062,-0.202 z m 0.968,1.405 c 0.672,0.902 1.246,1.653 1.577,1.653 0.206,0 0.741,-0.447 1.131,-0.808 0.388,-0.363 1.015,-0.977 1.169,-1 0.156,-0.026 0.414,0.127 0.518,0.023 0.105,-0.104 0.207,-0.309 0.285,-0.18 0.076,0.13 -0.054,0.879 -0.18,1.086 -0.131,0.208 -1.07,0.906 -1.845,1.66 -0.534,0.522 -1.108,1.176 -1.235,1.313 -0.092,0.104 -0.247,0.073 -0.461,-0.295 -0.447,-0.777 -1.407,-2.239 -1.92,-2.897 -1.033,-1.331 -1.988,-1.385 -1.988,-1.385 0.027,-0.129 0.131,-0.311 0.414,-0.441 0.285,-0.127 0.698,-0.203 0.829,-0.18 0.129,0.027 1.034,0.547 1.706,1.451 z m -8.857,-22.817 0.002,-0.003 c -0.011,0.002 -0.021,0.003 -0.037,0.014 -0.164,0.109 -0.547,0.331 -0.547,0.331 0,0 -0.766,0 -0.933,0.217 -0.163,0.218 0.055,0.438 -0.163,0.492 -0.218,0.055 -0.381,-0.218 -0.381,-0.218 0,-0.165 -0.274,-0.383 -0.111,-0.491 0.165,-0.111 0.165,-0.167 0.439,-0.221 0.271,-0.054 0.655,0 0.985,-0.164 0.328,-0.164 0.436,-0.328 0.656,-0.328 0.219,0 0.341,0.002 0.451,-0.161 0.027,-0.042 0.078,-0.078 0.172,-0.156 0.097,-0.102 0.705,-0.693 1.611,-0.823 0.984,-0.139 1.266,0.212 1.934,0.563 0.669,0.353 0.492,0.703 0.596,1.02 0.106,0.316 0,0.563 -0.068,0.772 -0.07,0.212 -0.143,0.28 -0.178,0.388 -0.035,0.104 -0.104,0.562 -0.104,0.667 0,0.105 0.424,0.105 0.773,-0.104 0.351,-0.211 0.315,-0.844 0.387,-1.336 0.072,-0.492 -0.456,-1.266 -0.353,-1.512 0.106,-0.245 1.231,-0.104 1.303,0.072 0.07,0.174 -0.389,0.034 -0.389,0.174 0,0.141 0.809,0.212 0.844,0.386 0.037,0.177 -0.352,0.177 -0.352,0.318 0,0.14 0.564,0.14 0.564,0.386 0,0.247 -0.633,-0.07 -0.668,0.069 -0.036,0.141 0.42,0.352 0.387,0.528 -0.037,0.177 -0.316,0 -0.316,0.141 0,0.14 0.456,0.563 0.598,0.773 0.139,0.21 0.281,0.773 0.246,0.879 -0.035,0.106 -0.316,-0.141 -0.494,-0.141 -0.175,0 0.143,0.247 0.072,0.421 -0.072,0.176 -0.317,0 -0.422,-0.209 -0.106,-0.212 -0.459,-0.704 -0.598,-0.774 -0.143,-0.071 0,0.246 -0.178,0.421 -0.174,0.177 -0.211,0.177 -0.632,0.107 -0.423,-0.071 -0.458,0 -0.984,0.07 -0.528,0.071 -0.88,-0.421 -1.161,-0.421 -0.106,0 -0.086,0.118 -0.032,0.274 0.044,0.13 -0.313,0.303 -0.271,0.437 0.04,0.134 0.476,0.229 0.41,0.272 -0.213,0.14 -0.341,0.099 -0.41,0.275 -0.071,0.175 0.727,0.358 0.585,0.426 -0.139,0.072 -0.489,0.248 -0.842,0.248 -0.354,0 -0.354,-0.386 -0.354,-0.493 0,-0.105 0.02,-1.206 -0.158,-1.275 -0.174,-0.071 -0.613,0.045 -0.72,-0.059 -0.104,-0.105 0.283,-0.547 0.283,-0.653 0,-0.106 -0.353,-0.052 -0.496,-0.262 -0.138,-0.212 0.198,-0.618 0.058,-0.723 -0.053,-0.04 -0.299,-0.083 -0.424,-0.099 -0.182,-0.022 -0.122,-0.12 -0.342,-0.12 -0.173,0 -0.141,-0.306 -0.201,-0.38 -0.023,-0.009 -0.037,-0.015 -0.037,-0.015 z m 5.602,4.881 c 0,0 -0.493,-0.273 -0.821,-0.273 -0.329,0 -0.767,0 -0.931,-0.219 -0.164,-0.217 -0.33,-0.656 -0.33,-0.656 0,0 0.386,-0.165 0.386,-0.328 0,-0.166 -0.056,-0.492 -0.056,-0.492 0.111,-0.219 0.328,-0.166 0.494,-0.166 0.162,0 0.107,0.166 0.107,0.166 0,0 -0.382,0.382 -0.273,0.602 0.111,0.219 0.383,0.602 0.438,0.437 0.055,-0.164 -0.327,-0.546 -0.056,-0.766 0.273,-0.219 0.877,-0.603 1.314,-0.109 0.438,0.492 0.22,0.929 -0.054,1.204 -0.273,0.272 -0.218,0.6 -0.218,0.6 z m -1.21,2.236 c -0.337,-0.135 -0.536,-0.135 -0.604,-0.334 -0.067,-0.202 -0.202,-0.403 -0.202,-0.403 -0.201,0.134 -0.268,0.336 -0.268,0.336 0,0 -0.269,0.334 0,0.537 0.268,0.199 0.604,0.133 0.537,0.401 -0.067,0.27 -0.338,0.604 -0.537,0.402 -0.202,-0.2 -0.537,-0.132 -0.537,-0.402 0,-0.268 0.335,-0.604 -0.066,-0.604 -0.402,0 -0.805,-0.2 -0.738,-0.469 0.067,-0.268 0.143,-0.431 0.121,-0.61 -0.02,-0.181 -0.152,-0.354 -0.279,-0.421 -0.338,-0.179 -0.104,-0.14 -0.659,-0.279 -0.479,-0.119 -0.726,-0.164 -0.858,-0.5 -0.133,-0.337 -0.2,-0.803 -0.2,-0.803 0.333,-0.068 0.817,-0.231 1.22,-0.097 0.4,0.133 0.731,0.248 0.926,0.364 0.193,0.115 0.2,0.67 0.2,0.67 l -0.134,0.47 c 0,0 0.367,0.06 0.538,0.269 0.168,0.205 -0.136,0.469 0.333,0.401 0.472,-0.068 0.805,0.067 0.871,-0.269 0.069,-0.334 0.069,-0.603 0.269,-0.536 0.203,0.066 0.538,0.673 0.739,0.673 0.201,0 0.066,-0.406 0.269,-0.406 0.199,0 0.669,-0.468 0.938,-0.402 0.268,0.068 0.806,0.471 1.006,0.402 0.201,-0.065 0.336,0.136 0.268,0.335 -0.066,0.203 0,0.538 0.133,0.807 0.137,0.267 0.539,0.804 0.338,0.938 -0.201,0.136 -0.672,0.136 -0.806,0.337 -0.133,0.201 0.134,0.603 0.134,0.603 0,0 -0.24,0.136 -0.443,0.204 -0.199,0.067 -0.479,-0.241 -0.479,-0.241 0,0 -0.484,-0.312 -0.141,-0.498 0.26,-0.139 0.119,-0.341 0.119,-0.341 0,0 -0.098,0.378 -0.734,0.138 -0.814,-0.31 -0.201,-0.469 -0.468,-0.535 -0.27,-0.069 -0.471,-0.002 -0.806,-0.137 z m 0.419,6.381 c 0,-0.531 -0.137,-1.032 0.049,-1.131 0.249,-0.135 0.28,0.212 0.81,0.197 0.267,-0.007 0.563,-0.164 0.63,-0.033 0.065,0.131 -0.268,0.432 -0.2,0.531 0.065,0.099 0.464,-0.099 0.497,0.065 0.031,0.165 -0.443,0.575 -0.397,0.796 0.021,0.104 0.136,0.206 0.271,0.274 0.132,0.063 0.359,-0.043 0.359,0.091 0,0.131 -0.496,0.563 -0.762,0.729 -0.267,0.167 -0.498,0.167 -0.498,0.034 0,-0.133 0,-0.299 -0.232,-0.299 -0.231,0 -0.739,0.157 -0.823,-0.061 -0.15,-0.387 0.296,-0.661 0.296,-1.193 z m -4.073,2.876 c 0.568,-0.104 1.419,-0.238 2.204,-0.681 0.308,-0.173 1.58,-0.144 1.769,-0.007 0.189,0.14 0.289,0.309 0.019,0.676 -0.259,0.352 -1.462,0.684 -1.676,0.739 -1.247,0.327 -2.233,0.365 -2.323,0.091 -0.168,-0.506 -0.094,-0.796 0.007,-0.818 z m -0.089,2.537 c 0.018,-0.184 0.142,-0.242 0.22,-0.304 0.081,-0.06 -0.139,-0.143 -0.16,-0.445 -0.02,-0.304 0.142,-0.487 0.261,-0.508 0.122,-0.021 1.142,0.204 2.442,-0.122 1.302,-0.325 2.421,-1.053 2.421,-1.053 0,0 0.181,0.283 0.259,0.426 0.083,0.139 -0.101,0.385 -0.298,0.545 -0.101,0.082 -0.608,0.432 -1.622,0.692 -1.5,0.386 -2.441,0.181 -2.682,0.202 -0.241,0.021 -0.16,0.184 0,0.222 0.161,0.041 1.047,0.211 2.643,-0.038 1.42,-0.225 2.223,-0.59 2.223,-0.59 0,0 0.133,0.597 -0.462,0.954 -0.739,0.444 -2.308,0.802 -3.083,0.872 -1.121,0.101 -1.661,0 -1.898,-0.203 -0.264,-0.219 -0.284,-0.466 -0.264,-0.65 z m -1.542,2.455 c 0.4,-0.233 0.126,-0.568 0.295,-0.76 0.169,-0.191 0.358,-0.318 0.549,-0.273 0.188,0.039 -0.38,0.611 -0.295,0.718 0.084,0.104 0.611,-0.467 0.717,-0.36 0.105,0.107 -0.127,0.486 -0.422,0.928 -0.295,0.445 -0.4,0.783 -0.254,0.762 0.148,-0.021 0.359,-0.611 0.592,-0.865 0.232,-0.253 0.463,-0.717 0.78,-0.695 0.316,0.02 0.507,0 0.614,-0.065 0.105,-0.063 0.4,-0.382 0.485,-0.315 0.085,0.063 0.126,0.293 -0.085,0.612 -0.212,0.315 -0.424,1.013 -0.295,1.013 0.127,0 0.482,-0.867 0.674,-1.119 0.19,-0.254 0.276,-0.506 0.423,-0.463 0.147,0.041 -0.063,1.075 0.063,1.054 0.127,-0.021 0.232,-0.716 0.318,-0.929 0.083,-0.213 0.168,-0.359 0.295,-0.339 0.125,0.021 0.125,0.214 0.125,0.509 0,0.295 0.022,0.652 0.107,0.634 0.082,-0.021 0.252,-0.929 0.401,-0.909 0.147,0.021 0.104,0.213 0.104,0.402 0,0.188 0.105,0.864 0.021,1.098 -0.084,0.23 -1.246,0.971 -1.815,1.647 -0.571,0.675 -0.971,1.31 -1.121,1.519 -0.147,0.21 -1.202,-0.209 -2.194,-0.527 -0.994,-0.316 -1.29,-0.485 -1.458,-0.57 -0.168,-0.085 -0.147,-0.38 -0.21,-0.568 -0.065,-0.191 -0.105,-0.445 0.042,-0.637 0.15,-0.193 1.143,-1.269 1.544,-1.502 z m -8.597,2.693 c 0.242,-0.3 2.966,-3.221 4.214,-3.568 0.725,-0.201 1.257,-0.204 1.394,-0.204 0.137,0 0.34,-0.271 0.272,-0.409 -0.067,-0.134 -0.269,-0.193 -0.646,-0.229 -0.376,-0.031 -0.782,0.164 -0.713,-0.076 0.068,-0.236 1.087,-0.848 1.598,-1.021 0.508,-0.168 1.495,-0.612 1.597,-0.407 0.101,0.205 -0.85,0.751 -1.155,1.702 -0.307,0.95 -0.273,1.766 -0.376,2.003 -0.101,0.238 -0.269,0.375 -0.543,0.102 -0.272,-0.271 -0.951,-0.509 -1.734,-0.102 -0.78,0.408 -2.236,2.259 -2.767,2.959 -0.332,0.438 -0.621,0.793 -0.959,0.489 -0.34,-0.308 -0.351,-0.322 -0.42,-0.525 -0.068,-0.204 -0.003,-0.413 0.238,-0.714 z m -0.27,1.558 c 0.07,-0.181 0.359,-0.14 0.553,0.045 0.195,0.185 0.409,0.376 0.64,0.01 0.229,-0.368 1.512,-2.057 2.333,-2.91 0.745,-0.769 1.133,-0.819 1.502,-0.848 0.34,-0.026 0.425,0.058 0.377,0.195 -0.045,0.138 -0.409,-0.024 -0.945,0.243 -0.58,0.291 -1.675,1.682 -2.33,2.563 -0.561,0.757 -0.81,1.109 -1.017,1.33 -0.248,0.264 -0.423,0.291 -0.698,0.061 -0.275,-0.23 -0.482,-0.511 -0.415,-0.689 z m 3.454,5.114 c -0.375,-0.205 -2.143,-1.531 -2.209,-1.701 -0.068,-0.168 0.237,-0.983 0.374,-1.055 0.134,-0.066 0.373,0.035 0.51,-0.066 0.136,-0.102 0.644,-1.02 0.848,-1.359 0.203,-0.34 0.374,-0.34 0.444,-0.271 0.067,0.068 -0.171,0.645 0,0.68 0.169,0.035 0.544,-0.851 0.715,-0.781 0.168,0.066 -1.123,2.48 -1.022,2.549 0.104,0.066 1.258,-2.211 1.394,-2.144 0.135,0.069 -1.122,2.821 -0.952,2.855 0.17,0.037 2.348,-3.821 2.62,-4.637 0.271,-0.816 0.135,-1.48 -0.513,-1.752 -0.644,-0.271 -1.29,0.035 -2.445,1.667 -1.042,1.469 -1.701,2.377 -2.04,2.753 -0.34,0.373 -0.749,0.44 -1.189,-0.069 -0.442,-0.51 -1.156,-1.461 -0.953,-1.766 0.204,-0.309 0.511,-0.172 0.647,0.067 0.135,0.237 0.567,0.774 0.724,0.938 0.243,0.262 0.771,-0.021 0.975,-0.328 0.204,-0.305 1.471,-2.042 2.13,-2.807 0.669,-0.775 1.574,-1.51 2.628,-0.896 1.052,0.61 0.779,1.867 0.442,2.684 -0.34,0.815 -2.141,4.588 -2.312,4.961 -0.17,0.374 -0.443,0.681 -0.816,0.478 z m 2.387,0.677 c -0.229,0.229 -0.967,0.184 -1.196,-0.231 -0.231,-0.41 0.415,-2.205 0.69,-2.48 0.277,-0.276 0.277,0.138 0.46,0.229 0.183,0.092 0.229,-0.092 0.505,0 0.275,0.092 0.229,-0.138 0.368,-0.275 0.137,-0.138 -0.414,-0.598 -0.368,-1.379 0.046,-0.783 0.275,-1.517 0.459,-1.794 0.184,-0.276 0.416,-0.32 0.551,-0.229 0.137,0.092 0.152,0.531 0.014,0.852 -0.137,0.322 -0.289,0.896 -0.335,1.125 -0.045,0.23 -0.092,0.598 0.229,0.689 0.322,0.092 0.921,0.275 1.15,0.32 0.231,0.047 0.552,0 0.783,-0.551 0.229,-0.553 0.32,-0.965 0.414,-1.24 0.092,-0.275 -0.141,-0.553 -0.414,-0.736 -0.278,-0.184 0.139,-0.781 0.139,-0.781 0,0 0.85,0.328 1.103,0.602 0.286,0.314 0.368,0.523 0.324,0.939 -0.04,0.415 -0.442,1.188 -0.601,1.492 -0.135,0.26 -0.432,0.582 -0.736,0.69 -0.156,0.054 -0.646,0.153 -0.646,0.153 0,0 0.186,0.307 10e-4,0.446 -0.181,0.136 -1.011,0.136 -1.011,0.181 0,0.047 0.69,0.551 0.598,0.783 -0.091,0.229 -0.458,0.275 -0.458,0.275 0,0 0.275,0.229 0.183,0.369 -0.092,0.136 -0.458,-0.231 -0.829,-0.277 -0.366,-0.047 -0.826,0.277 -0.872,0.094 -0.046,-0.186 -0.046,-0.413 0.092,-0.555 0.137,-0.139 0.092,-0.368 0.275,-0.32 0.184,0.046 0.505,0.367 0.551,0.182 0.046,-0.182 -0.181,-0.504 -0.367,-0.551 -0.184,-0.045 -0.322,0.279 -0.459,0.184 -0.138,-0.092 -0.184,-0.364 -0.32,-0.229 -0.14,0.137 -0.049,1.792 -0.277,2.023 z m 1.223,0.819 c -0.328,0.053 -0.605,0.145 -0.815,-0.264 -0.211,-0.406 -0.039,-0.749 0.105,-0.906 0.145,-0.16 0.315,-0.184 0.619,-0.172 0.432,0.021 0.552,0.617 0.511,0.75 -0.039,0.132 -0.093,0.541 -0.42,0.592 z m 1.183,0.068 c -0.131,0.131 -0.29,0.249 -0.487,0.196 -0.197,-0.053 -0.355,-0.185 -0.355,-0.185 0,0 0.092,-0.131 0.251,-0.368 0.158,-0.236 0.329,-0.618 0.408,-0.895 0.079,-0.275 0.237,-0.632 0.237,-0.632 0.131,-0.063 0.276,-0.063 0.421,0 0.143,0.067 0.208,0.106 0.183,0.265 -0.026,0.158 -0.21,0.644 -0.328,0.908 -0.12,0.261 -0.199,0.577 -0.33,0.711 z m 13.255,-2.001 c -0.284,0.152 -1.182,0.799 -1.412,0.838 -0.229,0.039 -0.36,-0.078 -0.439,-0.342 -0.076,-0.269 -0.189,-0.783 -0.287,-0.764 -0.092,0.02 0.078,0.84 0.098,1.087 0.02,0.249 -0.059,0.421 -0.326,0.534 -0.266,0.115 -1.965,0.877 -2.463,0.803 -0.495,-0.078 -0.456,-0.193 -0.476,-0.44 -0.02,-0.247 0.134,-4.351 0.212,-4.884 0.076,-0.535 0.285,-0.86 0.551,-0.689 0.269,0.174 0.516,0.381 1.053,1.164 0.532,0.784 0.857,1.432 1.123,1.757 0.268,0.323 0.554,0.21 0.554,0.21 0.554,-0.095 0.993,-0.459 1.223,-0.516 0.229,-0.057 0.496,-0.02 0.649,0.365 0.151,0.379 0.226,0.723 -0.06,0.877 z m 2.52,-5.204 c -1.242,1.089 -1.785,1.837 -2.689,2.691 -0.396,0.373 -1.158,1.173 -1.578,1.188 -0.393,0.017 -1.617,-2.344 -1.617,-2.344 -0.722,-1.291 -1.768,-3.174 -3.336,-3.125 -1.475,0.045 -2.724,1.922 -3.655,3.863 l -0.558,1.393 c 0.012,0.057 0.035,0.089 0.074,0.086 0.152,-0.02 0.564,-1.105 0.732,-1.262 0.229,-0.213 0.388,-0.142 0.428,-0.046 0.037,0.097 -0.664,2.203 -0.797,2.491 -0.133,0.285 0.074,0.457 0.171,0.191 0.094,-0.269 1.079,-2.602 1.165,-2.807 0.129,-0.318 0.389,-0.363 0.361,-0.076 -0.033,0.381 -0.381,2.346 -0.399,2.576 -0.021,0.229 0.133,0.4 0.209,0.038 0.078,-0.362 0.515,-2.708 0.669,-3.053 0.152,-0.345 0.533,-0.499 0.515,-0.171 -0.021,0.323 -0.343,2.955 -0.362,3.301 -0.02,0.342 0.189,0.534 0.248,0.17 0.058,-0.361 0.287,-2.252 0.38,-2.766 0.097,-0.516 0.151,-0.627 0.306,-0.627 0.152,0 0.287,0.723 0.268,1.142 -0.018,0.419 0.172,0.458 0.229,0.286 0.058,-0.171 0.173,-0.439 0.269,-0.439 0.096,0 0.229,3.686 0.229,4.144 0,0.458 -0.097,0.706 -0.668,0.84 -0.574,0.133 -0.954,0.228 -1.146,0.151 -0.189,-0.076 -0.056,-0.67 -0.189,-0.67 -0.135,0 -0.02,0.576 -0.287,0.633 -0.268,0.055 -1.775,0.152 -2.119,0.055 -0.344,-0.094 -0.361,-0.494 -0.515,-0.514 -0.151,-0.02 -0.114,0.324 -0.306,0.402 -0.124,0.047 -1.127,-0.201 -1.541,-0.387 0.866,-2.252 2.506,-6.293 3.18,-7.383 0.857,-1.385 2.104,-2.457 3.093,-2.486 1.002,-0.029 1.661,0.422 2.231,1.119 1.142,1.4 1.172,1.689 2.182,3.265 0.134,0.207 0.303,0.733 0.715,0.769 0.203,0.017 0.961,-1.119 2.095,-2.094 1.095,-0.943 1.2,-0.99 2.017,-1.398 0.813,-0.405 1.138,-1.007 1.395,-0.877 -0.066,0.308 -0.778,1.19 -1.399,1.731 z"
   id="path43" />

</g>
    <g
       id="g48"
       transform="matrix(0.26458333,0,0,0.26458333,3.2927398,75.141667)">
	<path
   fill="#ffffff"
   d="m 98.958,2.456 c -19.271,0 -34.949,15.678 -34.949,34.949 0,16.61 11.803,31.023 28.066,34.271 l 1.1,0.203 c 0.868,0.618 1.795,0.837 2.939,1.1 1.805,0.412 3.091,0.963 3.091,0.963 0,0 1.04,-0.425 1.601,-0.595 1.273,-0.382 3.168,-0.478 4.436,-1.407 0.077,-0.056 0.151,-0.119 0.224,-0.184 0.009,0.008 0.132,-0.03 0.132,-0.03 C 122.002,68.571 133.91,54.137 133.91,37.406 133.908,18.134 118.229,2.456 98.958,2.456 Z m 3.664,69.862 c -2.441,0.57 -3.282,0.889 -3.282,0.889 0,0 -0.597,-0.253 -1.55,-0.432 -0.952,-0.178 -2.239,-0.411 -3.206,-0.939 -0.97,-0.531 -1.644,-1.305 -2.104,-2.41 -0.588,-1.411 -0.423,-3.826 -0.423,-3.826 0,0 2.69,-0.709 1.612,-3.842 -0.211,-0.605 -1.004,-1.64 -2.375,-1.64 -0.629,0 -1.973,0.499 -1.973,0.499 0,0 0.451,-0.915 0.759,-1.195 0.309,-0.277 0.531,-0.402 0.8,-0.439 0.271,-0.041 0.409,-0.167 0.605,-0.265 0.018,-0.011 0.041,-0.022 0.069,-0.04 0.6,-0.426 1.374,-0.82 2.334,-1.012 2.652,-0.532 4.486,0.809 4.99,1.153 0.506,0.349 0.641,0.46 0.977,0.089 0.301,-0.328 2.19,-1.798 5.043,-1.646 2.463,0.127 3.547,2.23 3.699,2.398 0.152,0.168 -1.193,-0.227 -2.535,0.926 -0.939,0.803 -1.182,1.779 -0.913,2.788 0.354,1.33 1.638,2.202 1.638,2.202 0,0 0.227,2.199 -0.822,4.125 -0.425,0.778 -1.427,2.17 -3.343,2.617 z m 3.423,-1.159 c 0.797,-0.985 1.303,-2.385 1.459,-3.976 0.066,-0.675 -0.102,-1.79 -0.102,-1.79 0,0 -0.969,-0.445 -1.32,-1.746 -0.263,-0.978 -0.326,-1.828 0.646,-2.463 0.721,-0.473 1.664,-0.559 2.285,-0.508 0.49,0.04 0.65,-0.458 0.332,-0.956 -0.604,-0.938 -1.822,-2.605 -4.224,-2.795 -3.481,-0.277 -5.767,1.6 -5.767,1.6 0,0 -0.864,-1.231 -3.281,-1.644 -2.216,-0.381 -4.036,0.528 -5.003,1.281 -0.591,0.458 -1.173,0.966 -1.6,1.809 -0.058,0.115 -0.11,0.235 -0.157,0.354 -0.164,0.417 0.018,0.718 0.442,0.649 0.436,-0.069 1.029,-0.111 1.65,-0.006 0.542,0.093 1.046,0.68 1.351,1.801 0.54,1.982 -1.971,2.628 -1.971,2.628 0,0 0.082,3.705 0.909,4.917 0.268,0.388 0.53,0.7 0.793,0.97 l -0.325,-0.06 C 76.114,68.02 64.466,53.796 64.466,37.405 c 0,-19.018 15.472,-34.489 34.489,-34.489 19.018,0 34.489,15.472 34.489,34.489 0.003,16.327 -11.489,30.43 -27.399,33.754 z"
   id="path44" />

	<g
   id="g47">
		<path
   fill="#ffffff"
   d="m 91.219,56.906 c -0.116,-0.232 -0.845,-0.877 -2,-1 -1.625,-0.176 -3.193,0.809 -4.208,0.652 -0.754,-0.116 -1.142,-0.811 -1.162,-1.219 -0.021,-0.487 0,-0.871 0.408,-1.044 0.405,-0.175 1.308,-0.03 1.508,0.405 0.349,0.754 0.233,0.754 0.117,1.162 -0.066,0.229 0.811,-0.252 0.853,-0.928 0.033,-0.52 -0.621,-1.51 -1.666,-1.625 -1.044,-0.118 -2.263,0.577 -2.147,1.797 0.116,1.218 0.871,2.09 2.147,2.148 1.277,0.059 2.32,-0.408 2.844,-0.408 0.521,0 0.869,-0.057 0.869,-0.057 0,0 -1.122,0.293 -1.276,1.393 -0.082,0.574 0.348,1.451 0.812,1.509 0.464,0.058 0.639,-0.174 0.639,-0.174 0,0 -0.466,-0.117 -0.466,-0.813 0,-0.695 0.176,-1.103 0.931,-1.564 0.752,-0.466 1.797,-0.234 1.797,-0.234 z"
   id="path45" />

		<path
   fill="#ffffff"
   d="m 86.334,58.574 c -0.464,-0.348 0.173,-1.046 0.58,-1.219 0.406,-0.176 0.638,0 0.638,0 0,0 -0.579,0.173 -0.638,0.58 -0.058,0.407 -0.58,0.639 -0.58,0.639 z"
   id="path46" />

		<path
   fill="#ffffff"
   d="m 108.348,56.98 c 0,0 0.523,-0.467 1.625,-0.64 1.104,-0.174 3.725,-0.052 4.526,-0.29 1.191,-0.352 1.567,-1.103 1.22,-1.798 -0.349,-0.696 -1.102,-0.929 -1.451,-0.407 -0.349,0.522 -0.349,1.335 -0.349,1.335 0,0 -0.87,-0.117 -0.697,-0.928 0.175,-0.813 0.929,-1.394 1.743,-1.335 0.811,0.057 1.83,0.939 1.658,2.041 -0.178,1.104 -1.021,1.555 -1.658,1.672 -0.641,0.116 -2.613,0.059 -2.613,0.059 0,0 1.281,0.063 1.672,0.49 0.51,0.557 -0.395,1.018 -0.395,1.018 0,0 0.057,-0.404 -0.29,-0.638 -0.349,-0.231 -1.046,-0.29 -1.046,-0.29 0,0 0.873,0.58 0.582,1.276 -0.29,0.696 -0.638,0.929 -1.104,0.929 -0.464,0 -0.695,-0.813 -0.695,-0.813 0,0 0.348,0.406 0.695,0.231 0.349,-0.172 0.338,-0.638 -0.057,-0.985 -0.568,-0.5 -1.046,-0.755 -1.916,-0.87 -0.87,-0.116 -1.45,-0.057 -1.45,-0.057 z"
   id="path47" />

	</g>

</g>
    <path
       fill="#ffffff"
       stroke="#ffffff"
       stroke-width="0.0396875"
       d="m 26.148771,85.593238 h -0.150812 v -0.123825 -0.678392 l -0.189442,0.02567 -0.0164,-0.08176 0.356658,-0.05239 v 0.787136 z"
       id="path48" />
    <path
       fill="#ffffff"
       stroke="#ffffff"
       stroke-width="0.0396875"
       d="m 26.831131,85.609378 c -0.08493,0 -0.15875,-0.01535 -0.222779,-0.03889 l 0.0381,-0.109538 c 0.05847,0.02408 0.104511,0.03757 0.176477,0.03757 0.102659,0 0.177536,-0.09181 0.177536,-0.189971 0,-0.111918 -0.07117,-0.166952 -0.253206,-0.166952 H 26.6446 l 0.01799,-0.446087 h 0.460639 v 0.09181 h -0.328083 l -0.01111,0.26379 c 0,0 0.02328,-0.0034 0.0598,-0.0034 0.182563,0 0.314061,0.06376 0.314061,0.247121 -5.29e-4,0.175948 -0.118533,0.31459 -0.326761,0.31459 z"
       id="path49" />
    <path
       fill="#ffffff"
       stroke="#ffffff"
       stroke-width="0.0396875"
       d="m 32.263292,85.524976 v -0.0971 l 0.271727,-0.327555 c 0.0598,-0.07197 0.102923,-0.125148 0.102923,-0.218016 0,-0.105834 -0.06615,-0.160073 -0.1524,-0.160073 -0.07038,0 -0.114829,0.02963 -0.156898,0.05794 l -0.05292,-0.07779 c 0.07276,-0.05662 0.147373,-0.09128 0.259292,-0.09128 0.153458,0 0.257969,0.09393 0.257969,0.253471 0,0.119062 -0.05741,0.201083 -0.117475,0.27305 l -0.236802,0.277548 v 0.0016 h 0.389466 v 0.108479 h -0.564885 z"
       id="path50" />
    <path
       fill="#ffffff"
       stroke="#ffffff"
       stroke-width="0.0396875"
       d="m 33.239869,85.541115 -0.104775,-0.05371 0.37756,-0.722577 h -0.399785 v -0.137319 h 0.53631 v 0.117475 z"
       id="path51" />
    <g
       id="g130"
       transform="matrix(0.26458333,0,0,0.26458333,3.2927398,75.141667)">
	<path
   fill="#ffffff"
   d="m 105.889,65.273 c 0.013,-0.256 -0.196,-0.42 -0.692,-0.444 -0.437,-0.021 -0.636,0.427 -0.781,0.267 -0.144,-0.16 -0.243,-0.27 -0.17,-0.674 0.071,-0.406 0.425,-0.285 0.676,-0.223 0.253,0.064 0.206,0.012 0.216,-0.191 0.011,-0.205 -0.545,-0.336 -0.859,-0.197 -0.313,0.136 -0.699,0.68 -0.699,0.68 0,0 -0.391,-0.379 -0.532,-0.59 -0.144,-0.213 -0.436,-0.916 -0.124,-1.592 0.193,-0.426 0.678,-0.273 0.93,-0.158 0.25,0.115 0.178,0.521 0.16,0.825 -0.015,0.308 -0.614,0.021 -0.623,0.225 -0.014,0.204 0.602,0.235 0.596,0.339 -0.006,0.102 0.521,-0.178 0.75,-0.678 0.23,-0.5 0.045,-0.868 -0.093,-1.183 -0.136,-0.315 -0.789,-0.552 -0.789,-0.552 0,0 0.635,-0.427 0.817,-0.98 0.182,-0.554 -0.039,-1.229 -0.835,-1.68 -0.797,-0.451 -1.383,0.031 -1.702,0.269 -0.318,0.241 0.025,0.513 0.068,0.668 0.043,0.157 0.226,-0.397 0.596,-0.634 0.371,-0.235 0.609,0.082 0.91,0.201 0.301,0.116 0.529,0.642 0.395,1.3 -0.137,0.658 -1.321,0.802 -1.678,1.807 -0.36,1.005 0.141,2.206 0.535,2.482 0.396,0.276 0.813,1.118 1.061,1.282 0.246,0.166 0.035,0.641 -0.154,1.016 -0.117,0.235 -0.396,0.371 -0.807,0.349 -0.407,-0.021 -0.625,-0.37 -0.871,-0.536 -0.25,-0.167 -0.488,-0.486 -1.019,-0.973 -0.528,-0.489 -0.998,-0.667 -1.082,-0.978 -0.088,-0.312 0.431,-0.438 0.8,-0.624 0.367,-0.186 0.07,-0.406 0.035,-0.715 -0.035,-0.309 0.223,-0.347 0.404,-0.746 0.182,-0.402 -0.253,-1.191 -0.398,-1.35 -0.146,-0.162 0.118,-0.302 0.231,-0.503 0.111,-0.196 0.895,-0.464 1.056,-0.659 0.166,-0.198 -0.301,-0.119 -0.74,-0.346 -0.441,-0.227 0.01,-0.358 0.033,-0.664 0.023,-0.305 0.531,-0.535 0.039,-0.766 -0.491,-0.23 -0.736,0.219 -1.003,0.461 -0.271,0.242 -0.433,0.438 -0.69,0.477 -0.258,0.037 -0.811,-0.145 -1.02,-0.106 -0.206,0.044 -0.014,0.308 -0.027,0.562 -0.015,0.256 -0.026,0.512 -0.026,0.512 0,0 -0.788,0.42 -1.05,0.561 -0.266,0.139 -0.023,0.408 0.123,0.57 0.144,0.16 0.5,0.23 0.852,0.35 0.351,0.119 0.084,0.311 -0.027,0.51 -0.113,0.199 -0.451,-0.176 -0.654,-0.188 -0.205,-0.01 -0.457,-0.073 -0.695,-0.396 -0.239,-0.317 -0.293,-0.319 -0.449,-0.226 -0.16,0.093 0.076,0.466 0.219,0.727 0.139,0.264 0.603,0.184 0.857,0.198 0.256,0.014 0.51,0.077 0.705,0.241 0.193,0.162 -0.074,0.457 -0.236,0.601 -0.16,0.146 -0.492,-0.382 -0.746,-0.396 -0.257,-0.012 -0.373,0.289 -0.579,0.327 -0.208,0.043 -0.649,-0.338 -0.689,-0.544 -0.04,-0.207 -0.533,-0.592 -0.616,-0.952 -0.085,-0.363 -0.028,-0.464 0.04,-0.766 0.066,-0.305 0.331,-0.496 0.446,-0.744 0.117,-0.253 -0.217,-0.727 -0.367,-0.789 -0.153,-0.059 -0.014,0.257 -0.023,0.46 -0.012,0.203 -0.283,0.499 -0.436,0.489 -0.154,-0.008 -0.118,-0.67 -0.312,-0.936 -0.189,-0.268 -0.795,-0.4 -0.854,-0.249 -0.06,0.149 0.246,0.167 0.391,0.326 0.146,0.161 0.166,0.776 0.056,0.925 -0.109,0.148 -0.357,-0.02 -0.55,-0.233 -0.193,-0.215 -0.508,-0.077 -0.67,0.067 -0.16,0.146 0.34,0.377 0.639,0.494 0.304,0.117 0.266,0.832 0.409,0.993 0.147,0.159 0.027,0.513 0.008,0.871 -0.018,0.356 0.503,1.151 0.693,1.465 0.188,0.319 0.62,0.853 0.6,1.261 -0.021,0.41 -0.695,0.58 -0.913,0.822 -0.217,0.245 -0.288,0.65 -0.645,0.633 -0.357,-0.018 -0.501,-0.23 -0.696,-0.395 -0.198,-0.164 -0.502,-0.23 -0.801,-0.348 -0.301,-0.117 -0.298,0.803 -0.298,0.803 0,0 0.622,-0.174 0.773,-0.113 0.15,0.059 -0.021,0.408 -0.021,0.408 0,0 -0.413,0.082 -0.672,0.119 -0.256,0.039 -0.099,0.916 -0.099,0.916 0,0 0.175,-0.401 0.592,-0.531 0.416,-0.133 0.41,-0.031 0.559,0.078 0.148,0.109 -0.043,0.867 -0.154,1.018 -0.111,0.146 0.623,-0.172 0.895,-0.518 0.274,-0.346 0.229,-0.45 0.542,-0.586 0.314,-0.139 1.047,-0.457 1.411,-0.542 0.362,-0.085 1.022,10e-4 1.383,-0.032 0.36,-0.031 0.482,-0.436 0.745,-0.575 0,0 1.266,0.271 1.559,0.54 0.293,0.271 0.176,0.572 -0.033,0.613 -0.204,0.041 -0.393,-0.275 -0.488,-0.436 -0.094,-0.156 -0.415,0.132 -0.63,0.326 -0.216,0.193 -0.837,0.365 -1.151,0.506 -0.315,0.137 -0.504,-0.131 -0.916,-0.1 -0.411,0.028 -0.732,0.319 -0.742,0.523 -0.012,0.204 0.201,0.011 0.418,-0.184 0.214,-0.192 0.31,-0.086 0.557,0.133 0.244,0.217 -0.024,0.459 -0.092,0.764 -0.065,0.303 0.169,0.723 0.152,1.031 -0.018,0.305 -0.378,0.387 -0.494,0.641 -0.116,0.248 -0.225,0.396 -0.677,0.217 -0.452,-0.176 -0.55,-0.233 -0.909,-0.249 -0.354,-0.019 -0.364,0.134 -0.675,0.219 -0.312,0.089 -0.419,0.185 -0.419,0.185 0,0 0.455,0.124 0.651,0.287 0.195,0.166 -0.125,0.404 -0.125,0.404 l 0.853,0.352 0.596,-0.409 -0.146,0.637 0.757,0.192 0.227,-0.396 c 0,0 0.786,-0.37 1.053,-0.56 0.265,-0.192 0.334,-0.548 0.749,-0.679 0.416,-0.131 0.167,-0.248 0.339,-0.598 0.171,-0.348 -0.028,-0.461 -0.168,-0.724 -0.142,-0.264 0.063,-0.253 0.335,-0.545 0.271,-0.294 0.43,-0.388 0.845,-0.52 0.417,-0.134 0.272,-0.345 0.475,-0.231 0.197,0.111 0.031,0.357 0.177,0.521 0.145,0.159 0.107,0.876 0.047,1.077 -0.063,0.201 -0.07,0.354 -0.13,0.503 -0.059,0.151 0.21,-0.09 0.489,-0.384 0.279,-0.292 -0.047,-0.258 0.022,-0.459 0.069,-0.199 0.45,0.075 0.743,0.347 0.293,0.271 0.203,1.032 0.243,1.239 0.04,0.207 -0.331,0.445 -0.542,0.586 -0.212,0.142 -0.477,0.334 -0.477,0.334 0,0 -0.268,0.189 -0.307,-0.016 -0.041,-0.207 0.307,0.016 0.069,-0.354 -0.237,-0.371 -0.255,-0.014 -0.811,-0.196 -0.552,-0.181 -0.829,0.212 -0.829,0.212 0,0 0.352,0.123 0.707,0.191 0.354,0.069 0.403,0.123 0.493,0.382 0.087,0.263 -0.62,0.122 -0.78,0.216 -0.156,0.096 -0.21,0.697 -0.21,0.697 l 3.343,-0.894 c 0,0 0.059,-0.15 0.167,-0.297 0.112,-0.147 0.588,-0.483 0.861,-0.775 0.27,-0.294 -0.162,-0.88 0.05,-0.97 0.207,-0.092 0.188,0.315 0.188,0.315 0,0 0.162,-0.194 0.331,-0.493 0.171,-0.298 0.025,-0.459 -0.067,-0.668 -0.092,-0.21 -0.803,-0.298 -1.206,-0.421 -0.403,-0.124 -0.37,-0.786 -0.303,-1.091 0.067,-0.303 0.314,-0.137 0.62,-0.123 0.307,0.02 0.41,-0.027 0.938,-0.308 0.527,-0.279 0.7,-0.679 1.008,-0.716 0.31,-0.035 0.463,-0.027 0.463,-0.027 0,0 0.018,-0.357 -0.127,-0.518 -0.146,-0.162 -0.711,-0.088 -0.711,-0.088 0,0 0.018,-0.357 0.338,-0.596 0.32,-0.24 0.506,0.074 0.654,0.186 0.138,0.113 0.055,-0.249 0.068,-0.505 z m -8.232,6.085 c -0.117,0.06 -0.354,0.325 -0.621,0.265 -0.266,-0.058 -0.442,-0.353 -0.442,-0.353 0.03,-0.09 0.118,-0.385 0.237,-0.444 0.117,-0.061 0.326,-0.029 0.502,0 0.177,0.029 0.533,0.146 0.533,0.146 0,0 -0.089,0.327 -0.209,0.386 z m 1.419,-2.764 c -0.118,0.09 -0.449,0.479 -0.6,0.599 -0.148,0.12 -0.088,0.391 -0.088,0.391 0,0 -0.12,0.18 -0.3,0.18 -0.179,0 -0.551,0.052 -0.699,-0.008 -0.15,-0.06 -0.297,-0.323 -0.236,-0.563 0.061,-0.238 0.236,-0.502 0.236,-0.502 0,0 0.072,-0.304 0.31,-0.424 0.239,-0.121 1.586,-0.031 1.706,0 0.121,0.028 -0.209,0.238 -0.329,0.327 z M 98.825,61.38 c -0.408,-0.021 -0.547,-0.284 -0.547,-0.284 0.161,-0.145 0.591,-0.531 0.787,-0.369 0.195,0.164 0.423,0.687 0.625,0.749 0.202,0.06 0.92,0.046 0.859,0.199 -0.058,0.147 -0.42,0.231 -0.679,0.271 -0.255,0.038 -0.456,-0.074 -0.755,-0.244 -0.296,-0.171 0.118,-0.302 -0.29,-0.322 z m -4.183,0.052 c -0.081,-0.119 -0.081,-0.578 -0.081,-0.578 0,0 0.219,-0.059 0.379,-0.037 0.161,0.018 0.479,-0.042 0.579,-0.021 0.098,0.021 0.118,0.278 0.079,0.359 -0.041,0.078 0,0.257 0.019,0.339 0.02,0.079 -0.438,0.038 -0.616,0.038 -0.181,-10e-4 -0.281,0.021 -0.359,-0.1 z m 1.015,2.531 c 0,0 -0.238,-0.262 -0.299,-0.34 -0.06,-0.079 -0.298,-0.359 -0.317,-0.479 -0.021,-0.119 0.239,-0.158 0.358,-0.158 0.12,0 0.596,0.039 0.737,0.039 0.139,0 0.357,-0.02 0.418,0.021 0.059,0.039 0.16,0.198 0.16,0.259 0,0.059 -0.002,0.219 -0.199,0.26 -0.199,0.039 -0.537,0.218 -0.579,0.298 -0.039,0.078 -0.279,0.1 -0.279,0.1 z m 1.738,2.029 c -0.103,0.162 -0.363,0.248 -0.669,0.308 -0.305,0.061 -0.646,0.057 -0.646,0.057 -0.205,-0.029 -0.735,-0.011 -0.619,-0.236 0.071,-0.138 0.231,-0.31 0.539,-0.442 0.307,-0.137 0.369,-0.158 0.547,-0.158 0.244,0 1.012,-0.043 1.081,0.057 0.071,0.096 -0.13,0.249 -0.233,0.414 z m 0.949,-1.721 c -0.116,0.089 -0.231,0.138 -0.53,0.085 -0.297,-0.053 -0.521,-0.063 -0.521,-0.063 0,0 0.239,-0.253 -0.196,-0.198 -0.434,0.054 -0.569,0.12 -0.699,0.098 -0.133,-0.028 -0.236,-0.184 -0.236,-0.184 0,0 0.773,-0.411 1.018,-0.418 0.244,-0.006 0.787,0.078 1.152,-0.109 0.367,-0.188 0.523,-0.312 0.523,-0.312 0,0 -0.072,0.297 0.172,0.289 0.246,-0.005 0.653,-0.267 0.653,-0.267 0,0 0.251,0.238 0.073,0.398 -0.178,0.161 -0.183,0.272 -0.183,0.272 l 0.067,0.155 c 0,0 -0.006,0.076 -0.137,0.086 -0.131,0.014 -0.299,-0.016 -0.34,0.059 -0.043,0.074 0.006,0.242 0.006,0.242 0,0 -0.147,-0.063 -0.278,-0.07 -0.132,-0.004 -0.393,0.076 -0.366,0.076 0.023,0.002 -0.059,-0.228 -0.178,-0.139 z m 0.535,1.972 c -0.297,-0.071 -0.443,-0.202 -0.428,-0.466 0,-0.051 0.031,-0.096 0.081,-0.131 0.21,-0.158 1.81,-0.093 2.091,0.057 0.041,0.021 0.176,0.108 0.219,0.14 0.344,0.263 0.471,0.372 0.375,0.483 -0.111,0.129 -2.043,-0.01 -2.338,-0.083 z m 3.776,5.61 c -0.117,0.089 -0.178,0.296 -0.354,0.267 -0.18,-0.029 -0.563,0.059 -0.623,-0.09 -0.059,-0.148 0.326,-0.501 0.326,-0.501 0.117,-0.148 0.235,-0.179 0.502,-0.179 0.268,0 0.414,-0.03 0.414,0.088 0,0.118 -0.146,0.327 -0.265,0.415 z m 0.095,-2.551 c 0.091,0.088 0.209,0.208 0.059,0.298 -0.148,0.091 -0.508,0.025 -0.778,0.025 -0.27,0 -0.828,-0.261 -0.977,-0.532 -0.151,-0.269 -0.278,-0.659 -0.278,-0.659 0.146,-0.119 1.196,-0.119 1.345,-0.119 0.15,0 0.087,0.422 0.175,0.573 0.089,0.149 0.365,0.324 0.454,0.414 z"
   id="path129" />

</g>
    <g
       id="g120"
       transform="matrix(0.26458333,0,0,0.26458333,3.2927397,75.141667)">
		<path
   fill="#ffffff"
   d="m 86.346,65.743 c -0.047,0.101 -0.098,0.212 -0.175,0.36 -0.065,0.137 0.029,-0.053 -0.292,0.594 l -0.106,0.209 -0.022,0.049 -0.025,0.053 -0.03,0.053 c -0.069,-0.032 -0.132,-0.053 -0.17,-0.07 -0.437,-0.205 -0.522,-0.557 -0.277,-1.076 0.3,-0.643 0.642,-0.777 1.251,-0.498 z m 0.151,1.851 c 0.246,-0.566 0.421,-0.954 0.47,-1.059 l 0.128,-0.271 0.13,-0.264 0.286,-0.613 0.166,-0.336 0.159,-0.338 c 0.152,-0.309 0.286,-0.565 0.528,-0.977 -0.201,-0.066 -0.298,-0.105 -0.481,-0.191 -0.158,-0.072 -0.255,-0.125 -0.432,-0.238 -0.072,0.194 -0.108,0.272 -0.159,0.396 -0.131,0.309 -0.297,0.674 -0.434,0.965 -0.031,0.066 -0.112,0.242 -0.207,0.426 -0.103,-0.056 -0.191,-0.096 -0.236,-0.119 -0.951,-0.445 -1.685,-0.242 -2.068,0.573 -0.194,0.414 -0.188,0.823 0.013,1.116 0.138,0.203 0.344,0.354 0.768,0.551 0.056,0.027 0.172,0.072 0.23,0.102 0.407,0.162 0.392,0.154 0.515,0.212 0.137,0.065 0.202,0.103 0.525,0.284 z"
   id="path52" />

		<path
   fill="#ffffff"
   d="m 81.769,62.577 c 0.305,0.224 0.403,0.286 0.788,0.54 0.284,0.184 0.505,0.318 0.779,0.48 0.259,-0.371 0.292,-0.422 0.415,-0.611 0.292,-0.451 0.487,-0.77 0.741,-1.236 0.134,0.121 0.184,0.16 0.383,0.291 0.222,0.145 0.298,0.186 0.472,0.268 -0.665,0.883 -0.798,1.077 -1.287,1.827 -0.394,0.605 -0.75,1.163 -0.965,1.524 -0.079,0.123 -0.13,0.211 -0.245,0.422 -0.181,-0.147 -0.281,-0.223 -0.415,-0.309 -0.149,-0.096 -0.24,-0.148 -0.415,-0.232 0.265,-0.361 0.413,-0.575 0.535,-0.75 l 0.127,-0.195 c 0.341,-0.515 0.225,-0.334 0.367,-0.554 -0.458,-0.321 -0.648,-0.454 -0.83,-0.574 -0.236,-0.153 -0.4,-0.251 -0.737,-0.444 l -0.111,0.172 c -0.517,0.789 -0.644,1 -0.845,1.372 -0.16,-0.136 -0.245,-0.196 -0.399,-0.3 -0.182,-0.117 -0.265,-0.164 -0.444,-0.25 0.229,-0.297 0.307,-0.406 0.515,-0.703 0.305,-0.431 0.677,-0.994 1.109,-1.655 0.358,-0.548 0.553,-0.868 0.873,-1.415 0.16,0.135 0.241,0.195 0.481,0.353 0.15,0.097 0.211,0.128 0.369,0.199 -0.278,0.37 -0.292,0.392 -0.418,0.565 -0.252,0.339 -0.441,0.607 -0.67,0.959 z"
   id="path53" />

		<path
   fill="#ffffff"
   d="m 78.25,62.787 c -0.128,-0.106 -0.223,-0.176 -0.396,-0.285 0.783,-0.811 1.228,-1.311 1.952,-2.186 0.421,-0.51 0.651,-0.797 0.99,-1.256 0.165,0.169 0.263,0.26 0.357,0.339 0.152,0.125 0.227,0.179 0.43,0.312 -0.435,0.455 -0.575,0.609 -0.827,0.895 -0.308,0.344 -0.996,1.156 -1.435,1.687 -0.281,0.339 -0.442,0.546 -0.676,0.866 -0.157,-0.167 -0.237,-0.243 -0.395,-0.372 z"
   id="path54" />

		<path
   fill="#ffffff"
   d="m 78.245,60.325 c -0.671,0.683 -0.913,0.942 -1.307,1.378 -0.153,-0.186 -0.246,-0.285 -0.359,-0.397 -0.137,-0.133 -0.198,-0.185 -0.348,-0.294 0.284,-0.255 0.424,-0.382 0.775,-0.722 0.449,-0.438 0.843,-0.837 1.242,-1.243 0.413,-0.421 0.542,-0.555 0.862,-0.896 -0.044,-0.051 -0.092,-0.1 -0.101,-0.107 -0.176,-0.174 -0.233,-0.229 -0.409,-0.383 -0.202,-0.172 -0.336,-0.283 -0.561,-0.465 0.12,-0.079 0.166,-0.119 0.24,-0.193 0.062,-0.063 0.095,-0.105 0.142,-0.197 0.298,0.318 0.764,0.811 0.931,0.975 0.25,0.246 0.54,0.512 0.779,0.715 -0.55,0.486 -0.882,0.804 -1.611,1.549 z"
   id="path55" />

		<path
   fill="#ffffff"
   d="m 74.299,58.902 c -0.109,-0.125 -0.19,-0.209 -0.344,-0.348 0.908,-0.666 1.43,-1.085 2.291,-1.828 0.501,-0.43 0.775,-0.678 1.187,-1.07 0.132,0.194 0.216,0.302 0.296,0.395 0.129,0.148 0.193,0.214 0.372,0.379 -0.504,0.377 -0.67,0.506 -0.967,0.742 -0.361,0.287 -1.174,0.973 -1.696,1.422 -0.335,0.289 -0.528,0.465 -0.81,0.741 -0.129,-0.19 -0.196,-0.28 -0.329,-0.433 z"
   id="path56" />

		<path
   fill="#ffffff"
   d="m 74.128,55.761 c -0.093,0.067 -0.191,0.136 -0.332,0.228 -0.125,0.09 0.054,-0.029 -0.545,0.375 l -0.194,0.129 -0.043,0.033 -0.049,0.033 -0.052,0.031 c -0.042,-0.062 -0.088,-0.111 -0.111,-0.147 -0.278,-0.392 -0.183,-0.739 0.285,-1.072 0.579,-0.411 0.942,-0.361 1.338,0.181 z m -0.778,1.686 c 0.491,-0.373 0.834,-0.623 0.929,-0.69 l 0.242,-0.175 0.247,-0.166 0.548,-0.392 0.31,-0.212 0.303,-0.217 c 0.281,-0.192 0.529,-0.354 0.941,-0.594 -0.143,-0.154 -0.209,-0.235 -0.327,-0.402 -0.099,-0.14 -0.158,-0.233 -0.258,-0.42 -0.158,0.135 -0.229,0.186 -0.333,0.27 -0.268,0.203 -0.59,0.44 -0.852,0.625 -0.061,0.045 -0.217,0.156 -0.391,0.271 -0.061,-0.1 -0.119,-0.179 -0.146,-0.219 -0.61,-0.857 -1.35,-1.041 -2.086,-0.518 -0.37,0.264 -0.566,0.621 -0.535,0.978 0.018,0.243 0.126,0.477 0.398,0.856 0.033,0.05 0.111,0.146 0.15,0.202 0.276,0.341 0.266,0.325 0.343,0.435 0.089,0.127 0.127,0.189 0.318,0.506 z"
   id="path57" />

		<path
   fill="#ffffff"
   d="m 72.148,52.672 c -0.099,0.055 -0.204,0.111 -0.354,0.188 -0.135,0.07 0.057,-0.027 -0.587,0.304 l -0.208,0.106 -0.045,0.025 -0.053,0.031 -0.057,0.021 c -0.034,-0.063 -0.073,-0.123 -0.095,-0.157 -0.23,-0.423 -0.092,-0.756 0.412,-1.032 0.623,-0.338 0.979,-0.246 1.306,0.34 z m -0.972,1.581 c 0.531,-0.312 0.904,-0.522 1.004,-0.574 l 0.264,-0.146 0.263,-0.136 0.593,-0.321 0.329,-0.174 0.329,-0.183 c 0.304,-0.157 0.567,-0.287 1.006,-0.478 -0.125,-0.17 -0.18,-0.258 -0.278,-0.438 -0.082,-0.148 -0.129,-0.25 -0.205,-0.447 -0.175,0.115 -0.25,0.157 -0.365,0.228 -0.288,0.169 -0.636,0.368 -0.918,0.522 -0.065,0.033 -0.235,0.127 -0.419,0.223 -0.05,-0.107 -0.097,-0.196 -0.121,-0.237 -0.505,-0.923 -1.215,-1.194 -2.009,-0.761 -0.398,0.216 -0.636,0.549 -0.646,0.906 -0.012,0.242 0.067,0.488 0.29,0.898 0.031,0.055 0.097,0.158 0.127,0.219 0.232,0.371 0.225,0.354 0.289,0.473 0.074,0.135 0.103,0.202 0.256,0.54 z"
   id="path58" />

		<path
   fill="#ffffff"
   d="m 68.638,48.723 c -0.275,-0.758 0.229,-1.465 1.339,-1.872 1.162,-0.423 2.108,-0.192 2.391,0.581 0.278,0.757 -0.219,1.441 -1.338,1.85 -1.217,0.446 -2.098,0.243 -2.392,-0.559 z m -0.357,0.131 c 0.483,1.316 1.712,1.876 3.057,1.385 1.349,-0.495 1.874,-1.609 1.389,-2.938 -0.494,-1.348 -1.745,-1.891 -3.159,-1.373 -1.262,0.461 -1.768,1.609 -1.287,2.926 z"
   id="path59" />

		<path
   fill="#ffffff"
   d="m 68.856,40.607 c 0.027,0.375 0.044,0.49 0.104,0.946 0.044,0.336 0.083,0.593 0.138,0.905 0.455,-0.045 0.514,-0.053 0.74,-0.082 0.53,-0.069 0.898,-0.13 1.417,-0.242 -0.003,0.18 -10e-4,0.244 0.029,0.48 0.034,0.264 0.052,0.347 0.103,0.531 -1.103,0.072 -1.334,0.096 -2.223,0.211 -0.717,0.095 -1.373,0.186 -1.787,0.26 -0.147,0.02 -0.244,0.039 -0.481,0.088 -0.003,-0.234 -0.014,-0.357 -0.034,-0.517 -0.022,-0.177 -0.043,-0.278 -0.095,-0.465 0.448,-0.034 0.708,-0.062 0.92,-0.084 l 0.232,-0.029 c 0.611,-0.073 0.398,-0.046 0.657,-0.079 -0.054,-0.559 -0.079,-0.791 -0.104,-1.006 -0.039,-0.279 -0.069,-0.468 -0.139,-0.852 l -0.205,0.029 c -0.935,0.121 -1.181,0.16 -1.594,0.253 0,-0.213 -0.007,-0.317 -0.031,-0.499 -0.029,-0.213 -0.046,-0.31 -0.099,-0.501 0.376,-0.02 0.509,-0.03 0.868,-0.065 0.527,-0.049 1.198,-0.133 1.979,-0.236 0.651,-0.083 1.02,-0.145 1.646,-0.258 0,0.211 0.007,0.311 0.044,0.596 0.022,0.177 0.037,0.243 0.088,0.412 -0.463,0.027 -0.489,0.031 -0.703,0.047 -0.42,0.03 -0.747,0.061 -1.165,0.115 z"
   id="path60" />

		<path
   fill="#ffffff"
   d="m 70.875,36.708 c -0.006,0.349 -0.014,0.498 -0.014,0.656 0,0.203 0.006,0.504 0.013,0.814 0,0.128 0.007,0.226 0.02,0.44 -1.096,-0.049 -1.544,-0.057 -2.781,-0.058 -0.729,-0.001 -1.15,0.006 -1.745,0.036 0.045,-0.308 0.054,-0.465 0.054,-0.806 0,-0.244 -0.008,-0.708 -0.013,-0.998 -0.005,-0.173 -0.012,-0.288 -0.04,-0.572 0.115,0.025 0.195,0.038 0.289,0.038 0.127,0 0.167,-0.006 0.286,-0.037 -0.046,0.616 -0.033,0.438 -0.041,0.566 -0.021,0.332 -0.033,0.516 -0.033,0.849 0.889,0.025 0.823,0.025 1.431,0.025 -0.012,-0.634 -0.006,-0.462 -0.046,-1.249 0,-0.012 0,-0.075 -0.006,-0.154 0.113,0.031 0.175,0.038 0.269,0.038 0.105,10e-4 0.166,-0.007 0.28,-0.037 -0.033,0.46 -0.061,0.996 -0.063,1.292 v 0.112 c 0.302,0.005 0.321,0.005 0.515,0.005 l 1.164,-0.005 c 0.006,-0.074 0.006,-0.149 0.006,-0.167 0.002,-0.296 -0.039,-0.885 -0.078,-1.237 0.113,0.012 0.186,0.019 0.274,0.019 0.133,0 0.167,0 0.28,-0.019 l -0.006,0.05 v 0.099 z"
   id="path61" />

		<path
   fill="#ffffff"
   d="m 67.549,33.252 c -0.379,0.071 -0.614,0.305 -0.65,0.641 -0.041,0.374 0.184,0.669 0.536,0.708 0.319,0.035 0.518,-0.112 0.901,-0.677 0.511,-0.743 0.856,-0.951 1.482,-0.884 0.903,0.099 1.396,0.77 1.29,1.749 -0.041,0.383 -0.145,0.647 -0.381,0.967 -0.257,-0.109 -0.569,-0.211 -0.805,-0.268 l 0.013,-0.128 c 0.468,-0.036 0.762,-0.318 0.813,-0.777 0.042,-0.404 -0.217,-0.743 -0.597,-0.784 -0.206,-0.021 -0.372,0.03 -0.522,0.167 -0.147,0.133 -0.132,0.117 -0.468,0.592 -0.454,0.664 -0.813,0.863 -1.43,0.797 -0.825,-0.087 -1.298,-0.689 -1.209,-1.518 0.044,-0.408 0.163,-0.674 0.421,-0.961 0.183,0.112 0.292,0.161 0.616,0.271 z"
   id="path62" />

		<path
   fill="#ffffff"
   d="m 68.192,29.878 c -0.383,0.029 -0.641,0.237 -0.713,0.568 -0.08,0.365 0.108,0.687 0.455,0.76 0.313,0.069 0.526,-0.055 0.968,-0.574 0.59,-0.683 0.956,-0.854 1.57,-0.721 0.889,0.198 1.304,0.918 1.093,1.879 -0.083,0.378 -0.213,0.628 -0.485,0.92 -0.241,-0.134 -0.542,-0.27 -0.77,-0.351 l 0.028,-0.125 c 0.469,0.014 0.791,-0.235 0.89,-0.688 0.086,-0.396 -0.133,-0.758 -0.506,-0.842 -0.202,-0.045 -0.373,-0.012 -0.537,0.11 -0.163,0.116 -0.145,0.1 -0.53,0.538 -0.524,0.608 -0.902,0.772 -1.51,0.638 -0.808,-0.179 -1.215,-0.828 -1.036,-1.639 0.088,-0.402 0.233,-0.655 0.522,-0.912 0.17,0.132 0.273,0.193 0.584,0.337 z"
   id="path63" />

		<path
   fill="#ffffff"
   d="m 72.407,27.205 c -0.803,-0.329 -1.181,-0.484 -1.606,-0.664 -0.3,-0.131 -0.851,-0.372 -1.199,-0.526 -0.263,-0.119 -0.339,-0.159 -0.599,-0.283 0.069,-0.231 0.119,-0.364 0.166,-0.478 0.174,-0.406 0.364,-0.647 0.624,-0.777 0.413,-0.205 1.009,-0.171 1.637,0.096 0.701,0.301 1.165,0.745 1.299,1.25 0.08,0.289 0.042,0.581 -0.127,0.978 -0.06,0.14 -0.109,0.239 -0.195,0.404 z m 0.362,0.127 0.062,-0.127 0.055,-0.131 c 0.068,-0.145 0.144,-0.304 0.192,-0.419 0.192,-0.446 0.249,-0.737 0.205,-1.096 -0.091,-0.843 -0.643,-1.538 -1.511,-1.908 -0.755,-0.324 -1.558,-0.284 -2.087,0.105 -0.302,0.213 -0.521,0.539 -0.774,1.133 -0.054,0.125 -0.113,0.269 -0.171,0.416 l -0.033,0.093 -0.034,0.1 -0.041,0.096 c -0.066,0.172 -0.121,0.316 -0.174,0.442 -0.069,0.164 -0.11,0.24 -0.219,0.427 0.707,0.254 1.099,0.409 1.836,0.724 1.163,0.496 1.601,0.697 2.327,1.055 0.055,-0.199 0.099,-0.315 0.164,-0.472 0.081,-0.188 0.09,-0.211 0.14,-0.31 z"
   id="path64" />

		<path
   fill="#ffffff"
   d="m 71.838,19.979 c 0.435,-0.679 1.302,-0.707 2.299,-0.066 1.041,0.669 1.429,1.563 0.983,2.255 -0.437,0.678 -1.284,0.697 -2.285,0.054 -1.092,-0.701 -1.461,-1.523 -0.997,-2.243 z m -0.322,-0.207 c -0.757,1.181 -0.459,2.498 0.744,3.271 1.208,0.778 2.416,0.521 3.179,-0.669 0.775,-1.205 0.452,-2.532 -0.813,-3.345 -1.131,-0.727 -2.352,-0.436 -3.11,0.743 z"
   id="path65" />

		<path
   fill="#ffffff"
   d="m 78.334,17.837 c -0.622,-0.608 -0.913,-0.895 -1.238,-1.222 -0.229,-0.234 -0.649,-0.666 -0.914,-0.94 -0.196,-0.208 -0.254,-0.275 -0.447,-0.488 0.151,-0.187 0.248,-0.292 0.334,-0.378 0.315,-0.311 0.582,-0.463 0.87,-0.484 0.462,-0.034 1.001,0.223 1.48,0.708 0.537,0.541 0.798,1.129 0.731,1.646 -0.033,0.299 -0.18,0.555 -0.485,0.857 -0.108,0.108 -0.191,0.181 -0.331,0.301 z m 0.285,0.255 0.105,-0.098 0.102,-0.099 c 0.117,-0.107 0.248,-0.227 0.337,-0.314 0.346,-0.342 0.509,-0.589 0.604,-0.938 0.233,-0.814 -0.017,-1.668 -0.679,-2.337 -0.579,-0.585 -1.335,-0.851 -1.973,-0.691 -0.36,0.082 -0.687,0.304 -1.147,0.758 -0.095,0.095 -0.205,0.202 -0.314,0.319 l -0.065,0.074 -0.071,0.078 -0.073,0.074 c -0.127,0.134 -0.231,0.249 -0.327,0.343 -0.129,0.125 -0.194,0.18 -0.366,0.313 0.558,0.503 0.863,0.793 1.427,1.364 0.889,0.896 1.219,1.249 1.759,1.853 0.125,-0.161 0.207,-0.253 0.33,-0.374 0.145,-0.143 0.162,-0.16 0.246,-0.233 z"
   id="path66" />

		<path
   fill="#ffffff"
   d="m 82.749,14.499 c -0.283,0.206 -0.405,0.29 -0.532,0.387 -0.164,0.122 -0.399,0.309 -0.639,0.5 -0.104,0.078 -0.177,0.143 -0.34,0.283 -0.624,-0.903 -0.891,-1.264 -1.636,-2.25 -0.439,-0.582 -0.7,-0.913 -1.083,-1.368 0.274,-0.149 0.406,-0.241 0.675,-0.444 0.196,-0.149 0.561,-0.434 0.787,-0.613 0.131,-0.11 0.223,-0.187 0.43,-0.377 0.049,0.104 0.088,0.176 0.145,0.25 0.076,0.102 0.106,0.13 0.203,0.206 -0.52,0.334 -0.369,0.238 -0.475,0.312 -0.276,0.184 -0.433,0.285 -0.698,0.484 0.518,0.723 0.476,0.671 0.845,1.157 0.496,-0.395 0.363,-0.284 0.967,-0.791 0.01,-0.008 0.059,-0.044 0.12,-0.099 0.042,0.109 0.074,0.162 0.129,0.236 0.066,0.085 0.106,0.129 0.2,0.201 -0.389,0.252 -0.831,0.555 -1.065,0.732 l -0.09,0.066 c 0.177,0.245 0.189,0.26 0.306,0.415 l 0.706,0.925 c 0.063,-0.039 0.122,-0.085 0.137,-0.096 0.235,-0.178 0.681,-0.566 0.938,-0.811 0.059,0.099 0.098,0.162 0.15,0.229 0.083,0.107 0.101,0.132 0.186,0.212 l -0.043,0.025 -0.081,0.061 z"
   id="path67" />

		<path
   fill="#ffffff"
   d="M 84.519,10.289 C 84.466,10.188 84.411,10.081 84.337,9.929 84.267,9.793 84.361,9.985 84.042,9.337 L 83.939,9.129 83.914,9.08 83.885,9.027 83.863,8.971 c 0.066,-0.035 0.123,-0.074 0.16,-0.092 0.425,-0.222 0.758,-0.08 1.024,0.43 0.329,0.627 0.229,0.981 -0.36,1.298 z m -1.566,-1 c 0.303,0.536 0.507,0.913 0.56,1.014 l 0.138,0.265 0.131,0.265 0.314,0.598 0.169,0.334 0.175,0.333 c 0.152,0.302 0.278,0.57 0.46,1.01 0.172,-0.121 0.261,-0.175 0.441,-0.271 0.152,-0.08 0.255,-0.124 0.451,-0.199 -0.112,-0.175 -0.153,-0.252 -0.218,-0.366 -0.167,-0.29 -0.359,-0.644 -0.508,-0.928 -0.035,-0.064 -0.124,-0.237 -0.215,-0.422 0.106,-0.05 0.192,-0.096 0.237,-0.118 0.931,-0.488 1.213,-1.195 0.795,-1.995 C 85.671,8.406 85.344,8.164 84.986,8.147 84.743,8.13 84.498,8.208 84.085,8.423 84.029,8.451 83.924,8.516 83.863,8.547 83.49,8.773 83.505,8.764 83.385,8.828 83.25,8.899 83.182,8.927 82.842,9.076 Z"
   id="path68" />

		<path
   fill="#ffffff"
   d="m 86.788,7.213 c 0.151,-0.063 0.259,-0.114 0.436,-0.215 0.347,1.072 0.578,1.701 1.009,2.752 0.251,0.612 0.398,0.95 0.642,1.464 -0.227,0.063 -0.354,0.109 -0.468,0.158 -0.183,0.074 -0.266,0.115 -0.477,0.23 C 87.73,11.005 87.664,10.807 87.531,10.45 87.373,10.017 86.98,9.029 86.72,8.392 86.552,7.984 86.445,7.744 86.275,7.388 86.495,7.326 86.599,7.291 86.788,7.213 Z"
   id="path69" />

		<path
   fill="#ffffff"
   d="m 91.5,10.306 c -0.336,0.099 -0.478,0.137 -0.632,0.182 -0.193,0.061 -0.479,0.158 -0.771,0.254 -0.125,0.04 -0.214,0.075 -0.417,0.151 C 89.401,9.831 89.274,9.402 88.907,8.22 88.691,7.524 88.56,7.125 88.353,6.565 88.661,6.518 88.815,6.478 89.141,6.377 89.376,6.302 89.814,6.159 90.086,6.066 90.249,6.01 90.358,5.97 90.622,5.859 c 0.01,0.115 0.022,0.195 0.049,0.285 0.038,0.122 0.056,0.157 0.123,0.264 C 90.191,6.545 90.367,6.505 90.242,6.537 89.917,6.616 89.738,6.66 89.42,6.758 89.662,7.614 89.64,7.55 89.823,8.132 90.422,7.931 90.261,7.989 91,7.717 91.011,7.71 91.071,7.695 91.145,7.664 c 0.005,0.117 0.017,0.177 0.044,0.267 0.032,0.101 0.055,0.157 0.119,0.257 -0.45,0.104 -0.969,0.238 -1.252,0.326 L 89.95,8.546 c 0.083,0.291 0.089,0.309 0.147,0.495 l 0.353,1.108 c 0.072,-0.016 0.142,-0.039 0.161,-0.043 0.281,-0.087 0.833,-0.301 1.156,-0.444 0.022,0.111 0.038,0.186 0.064,0.269 0.04,0.126 0.05,0.158 0.1,0.26 L 91.883,10.2 91.79,10.231 Z"
   id="path70" />

		<path
   fill="#ffffff"
   d="M 94.131,9.73 C 93.897,9.749 93.78,9.765 93.583,9.804 93.407,9.84 93.325,9.863 93.147,9.925 93.071,9.415 93.049,9.236 92.999,8.946 92.957,8.674 92.889,8.3 92.803,7.825 92.716,7.366 92.612,6.841 92.554,6.545 92.496,6.249 92.479,6.164 92.428,5.964 92.109,6.028 91.62,6.164 91.352,6.266 91.35,6.129 91.339,6.043 91.322,5.957 91.295,5.827 91.283,5.794 91.237,5.688 c 0.86,-0.123 0.965,-0.135 1.448,-0.233 0.664,-0.13 0.993,-0.209 1.636,-0.377 0.019,0.153 0.027,0.226 0.046,0.331 0.019,0.092 0.035,0.137 0.07,0.247 -0.412,0.019 -0.712,0.052 -0.936,0.095 l -0.15,0.03 c 0.083,0.516 0.116,0.714 0.153,0.904 l 0.059,0.329 c 0.185,0.972 0.146,0.729 0.169,0.881 l 0.087,0.446 c 0.051,0.256 0.149,0.679 0.251,1.137 l 0.022,0.083 0.018,0.087 z"
   id="path71" />

		<path
   fill="#ffffff"
   d="m 96.316,6.134 c 0.285,0.587 0.392,0.827 0.671,1.48 -0.232,0.027 -0.276,0.03 -0.577,0.056 -0.159,0.013 -0.282,0.025 -0.541,0.04 0.144,-0.562 0.234,-0.871 0.447,-1.576 z m -1.444,3.413 c 0.121,-0.038 0.169,-0.048 0.304,-0.061 0.093,-0.008 0.162,-0.007 0.267,0.013 0.029,-0.165 -0.013,0.047 0.13,-0.663 0.021,-0.096 0.058,-0.254 0.181,-0.707 0.253,-0.036 0.401,-0.049 0.72,-0.075 0.332,-0.029 0.46,-0.041 0.693,-0.046 0.239,0.542 0.355,0.829 0.521,1.297 C 97.88,9.261 97.973,9.247 98.15,9.231 98.359,9.214 98.482,9.21 98.717,9.218 L 98.71,9.163 C 98.556,8.874 98.528,8.824 98.249,8.238 98.129,8 98.237,8.212 97.903,7.517 97.278,6.192 97.384,6.418 96.881,5.301 96.727,4.952 96.798,5.107 96.667,4.829 c -0.094,0.03 -0.113,0.031 -0.225,0.04 -0.061,0.005 -0.13,0.004 -0.234,-10e-4 -0.081,0.349 -0.143,0.571 -0.304,1.154 -0.271,1.011 -0.261,0.969 -0.641,2.23 -0.198,0.661 -0.285,0.937 -0.395,1.241 z"
   id="path72" />

		<path
   fill="#ffffff"
   d="m 100.436,9.302 c -0.233,-0.034 -0.35,-0.044 -0.554,-0.048 -0.177,-0.005 -0.263,0 -0.448,0.021 0.037,-0.513 0.054,-0.694 0.07,-0.988 C 99.522,8.013 99.537,7.634 99.557,7.151 99.575,6.685 99.589,6.149 99.596,5.849 99.605,5.547 99.608,5.462 99.6,5.253 99.274,5.246 98.768,5.272 98.485,5.312 98.512,5.178 98.522,5.093 98.524,5.006 98.528,4.871 98.522,4.839 98.501,4.725 c 0.865,0.068 0.97,0.078 1.463,0.09 0.677,0.02 1.014,0.015 1.68,-0.008 -0.016,0.154 -0.023,0.227 -0.027,0.333 -0.001,0.094 0.002,0.141 0.012,0.255 -0.404,-0.071 -0.705,-0.105 -0.934,-0.112 L 100.542,5.28 c -0.032,0.521 -0.044,0.722 -0.048,0.915 l -0.016,0.333 c -0.031,0.991 -0.02,0.743 -0.029,0.897 l -0.012,0.453 c -0.008,0.262 -0.006,0.697 -0.006,1.164 l 0.004,0.088 -0.003,0.086 z"
   id="path73" />

		<path
   fill="#ffffff"
   d="m 105.192,9.888 c -0.342,-0.069 -0.486,-0.105 -0.643,-0.134 -0.201,-0.039 -0.498,-0.086 -0.801,-0.135 -0.127,-0.024 -0.225,-0.036 -0.44,-0.063 0.253,-1.07 0.341,-1.508 0.567,-2.725 0.135,-0.717 0.207,-1.131 0.287,-1.723 0.293,0.105 0.449,0.14 0.781,0.203 0.242,0.045 0.697,0.125 0.982,0.171 0.171,0.025 0.286,0.04 0.57,0.065 -0.047,0.109 -0.074,0.185 -0.09,0.277 -0.022,0.126 -0.025,0.165 -0.017,0.291 -0.595,-0.161 -0.423,-0.114 -0.55,-0.145 -0.322,-0.08 -0.502,-0.129 -0.828,-0.189 -0.188,0.868 -0.174,0.804 -0.289,1.401 0.627,0.102 0.457,0.078 1.236,0.184 0.016,0.003 0.074,0.014 0.152,0.021 -0.049,0.107 -0.066,0.165 -0.082,0.257 C 106.006,7.749 106,7.81 106.008,7.927 105.562,7.81 105.04,7.683 104.75,7.628 l -0.11,-0.02 c -0.061,0.295 -0.063,0.314 -0.1,0.505 l -0.208,1.145 c 0.071,0.021 0.144,0.034 0.161,0.036 0.291,0.055 0.878,0.124 1.23,0.151 -0.032,0.109 -0.053,0.18 -0.068,0.264 -0.025,0.132 -0.029,0.166 -0.033,0.28 l -0.046,-0.016 -0.099,-0.018 z"
   id="path74" />

		<path
   fill="#ffffff"
   d="m 107.788,10.613 c -0.214,-0.094 -0.324,-0.134 -0.52,-0.191 -0.17,-0.051 -0.256,-0.07 -0.439,-0.098 0.172,-0.487 0.236,-0.657 0.326,-0.936 0.092,-0.259 0.207,-0.624 0.352,-1.082 0.142,-0.445 0.297,-0.957 0.382,-1.247 0.088,-0.287 0.112,-0.371 0.161,-0.573 -0.313,-0.093 -0.807,-0.199 -1.092,-0.238 0.063,-0.121 0.094,-0.202 0.118,-0.286 0.038,-0.128 0.043,-0.162 0.05,-0.276 0.818,0.294 0.917,0.33 1.389,0.472 0.646,0.196 0.976,0.281 1.623,0.434 -0.057,0.144 -0.084,0.211 -0.115,0.314 -0.025,0.089 -0.033,0.137 -0.057,0.25 -0.369,-0.175 -0.65,-0.287 -0.869,-0.354 l -0.145,-0.043 c -0.168,0.494 -0.234,0.683 -0.289,0.87 l -0.103,0.317 c -0.292,0.947 -0.214,0.712 -0.265,0.856 l -0.131,0.437 c -0.074,0.249 -0.188,0.669 -0.313,1.122 l -0.019,0.084 -0.024,0.083 z"
   id="path75" />

		<path
   fill="#ffffff"
   d="m 111.698,9.281 c 0.415,-0.861 0.563,-1.184 0.797,-1.725 0.204,0.127 0.324,0.194 0.469,0.264 0.172,0.082 0.245,0.111 0.424,0.166 -0.188,0.334 -0.28,0.498 -0.504,0.931 -0.283,0.561 -0.533,1.064 -0.779,1.576 -0.256,0.53 -0.338,0.697 -0.531,1.125 0.057,0.034 0.121,0.065 0.132,0.07 0.222,0.107 0.292,0.142 0.51,0.23 0.247,0.098 0.408,0.161 0.68,0.261 -0.087,0.114 -0.12,0.166 -0.167,0.262 -0.037,0.077 -0.057,0.129 -0.072,0.232 -0.385,-0.208 -0.982,-0.525 -1.192,-0.626 -0.315,-0.152 -0.677,-0.311 -0.968,-0.429 0.366,-0.632 0.578,-1.042 1.031,-1.983 z"
   id="path76" />

		<path
   fill="#ffffff"
   d="m 115.892,9.367 c 0.142,0.085 0.247,0.14 0.435,0.22 -0.646,0.922 -1.006,1.485 -1.584,2.464 -0.339,0.569 -0.52,0.89 -0.782,1.395 -0.188,-0.142 -0.301,-0.218 -0.407,-0.279 -0.17,-0.1 -0.252,-0.141 -0.473,-0.239 0.356,-0.521 0.475,-0.693 0.68,-1.015 0.249,-0.387 0.8,-1.295 1.152,-1.889 0.225,-0.38 0.352,-0.607 0.531,-0.959 0.181,0.137 0.273,0.2 0.448,0.302 z"
   id="path77" />

		<path
   fill="#ffffff"
   d="m 116.008,14.829 c -0.174,-0.156 -0.266,-0.229 -0.43,-0.348 -0.145,-0.104 -0.221,-0.149 -0.385,-0.235 0.32,-0.404 0.436,-0.544 0.61,-0.78 0.17,-0.214 0.396,-0.522 0.681,-0.91 0.278,-0.378 0.588,-0.813 0.764,-1.058 0.176,-0.245 0.225,-0.315 0.334,-0.493 -0.262,-0.187 -0.697,-0.448 -0.954,-0.575 0.097,-0.095 0.153,-0.162 0.204,-0.232 0.078,-0.109 0.094,-0.141 0.138,-0.246 0.678,0.541 0.761,0.608 1.16,0.893 0.55,0.395 0.833,0.581 1.397,0.934 -0.099,0.118 -0.148,0.174 -0.209,0.261 -0.055,0.076 -0.077,0.119 -0.133,0.218 -0.295,-0.286 -0.525,-0.482 -0.711,-0.614 l -0.124,-0.089 c -0.319,0.413 -0.442,0.573 -0.556,0.73 l -0.195,0.268 c -0.582,0.802 -0.433,0.605 -0.527,0.727 l -0.266,0.369 c -0.15,0.213 -0.395,0.573 -0.656,0.961 l -0.045,0.074 -0.051,0.071 z"
   id="path78" />

		<path
   fill="#ffffff"
   d="m 118.577,16.939 c -0.26,-0.241 -0.365,-0.342 -0.482,-0.449 -0.154,-0.134 -0.381,-0.329 -0.617,-0.529 -0.096,-0.086 -0.174,-0.146 -0.345,-0.279 0.765,-0.788 1.067,-1.119 1.889,-2.043 0.484,-0.545 0.761,-0.864 1.132,-1.33 0.2,0.24 0.314,0.351 0.564,0.576 0.186,0.163 0.535,0.464 0.756,0.651 0.136,0.109 0.225,0.183 0.454,0.35 -0.092,0.069 -0.157,0.121 -0.22,0.19 -0.082,0.096 -0.105,0.128 -0.162,0.238 -0.429,-0.442 -0.305,-0.314 -0.396,-0.405 -0.234,-0.235 -0.364,-0.368 -0.611,-0.588 -0.611,0.648 -0.564,0.598 -0.971,1.054 0.483,0.41 0.351,0.301 0.966,0.793 0.011,0.008 0.056,0.052 0.119,0.099 -0.099,0.065 -0.144,0.105 -0.205,0.173 -0.071,0.082 -0.106,0.13 -0.159,0.235 -0.322,-0.331 -0.705,-0.706 -0.926,-0.901 L 119.28,14.7 c -0.205,0.221 -0.219,0.238 -0.348,0.382 l -0.77,0.874 c 0.053,0.055 0.107,0.104 0.122,0.116 0.22,0.195 0.69,0.558 0.979,0.762 -0.085,0.074 -0.14,0.125 -0.196,0.19 -0.089,0.102 -0.111,0.125 -0.172,0.223 l -0.033,-0.037 -0.074,-0.066 z"
   id="path79" />

		<path
   fill="#ffffff"
   d="m 121.733,16.819 c 0.717,-0.63 1.035,-0.906 1.348,-1.169 0.063,0.061 0.105,0.11 0.133,0.139 0.333,0.377 0.299,0.739 -0.121,1.111 -0.466,0.415 -0.919,0.415 -1.287,0.002 z m -1.004,-0.268 c -0.308,0.267 -0.535,0.471 -0.681,0.591 -0.219,0.178 -0.382,0.309 -0.696,0.546 0.15,0.129 0.221,0.199 0.339,0.332 0.136,0.151 0.202,0.234 0.301,0.409 0.329,-0.327 0.333,-0.332 0.846,-0.803 l 0.169,-0.151 0.121,-0.117 c 0.137,-0.128 0.242,-0.226 0.242,-0.226 0.132,-0.117 0.162,-0.134 0.183,-0.102 0.011,0.014 0.003,0.044 -0.03,0.116 -0.009,0.032 -0.04,0.109 -0.076,0.209 -0.033,0.084 -0.104,0.273 -0.199,0.521 -0.088,0.23 -0.176,0.455 -0.261,0.681 -0.134,0.373 -0.182,0.498 -0.265,0.688 0.15,0.147 0.219,0.226 0.332,0.352 0.115,0.131 0.199,0.234 0.395,0.465 0.085,-0.249 0.152,-0.465 0.17,-0.514 0.483,-1.498 0.352,-1.095 0.403,-1.265 0.111,-0.329 0.142,-0.414 0.231,-0.676 0.574,0.364 1.08,0.348 1.519,-0.043 0.565,-0.503 0.561,-1.093 -0.016,-1.739 -0.042,-0.046 -0.14,-0.148 -0.265,-0.275 -0.206,-0.213 -0.316,-0.327 -0.404,-0.423 -0.072,-0.084 -0.154,-0.184 -0.34,-0.432 -0.502,0.49 -0.799,0.771 -1.188,1.119 z"
   id="path80" />

		<path
   fill="#ffffff"
   d="m 127.372,21.368 c 0.402,0.698 0.029,1.482 -0.996,2.073 -1.072,0.616 -2.044,0.552 -2.455,-0.163 -0.4,-0.698 -0.031,-1.459 1,-2.053 1.124,-0.648 2.026,-0.599 2.451,0.143 z m 0.332,-0.19 c -0.699,-1.215 -2.008,-1.556 -3.248,-0.841 -1.244,0.717 -1.572,1.907 -0.865,3.132 0.717,1.243 2.043,1.562 3.347,0.813 1.164,-0.672 1.467,-1.89 0.766,-3.104 z"
   id="path81" />

		<path
   fill="#ffffff"
   d="m 127.872,25.924 c 0.107,-0.042 0.219,-0.087 0.377,-0.142 0.142,-0.057 -0.06,0.017 0.621,-0.231 l 0.22,-0.079 0.05,-0.02 0.055,-0.022 0.059,-0.016 c 0.027,0.071 0.058,0.13 0.074,0.168 0.174,0.448 -0.004,0.762 -0.537,0.972 -0.661,0.259 -1.002,0.122 -1.253,-0.5 z m 1.164,-1.448 c -0.567,0.24 -0.963,0.403 -1.068,0.444 l -0.279,0.11 -0.276,0.103 -0.63,0.247 -0.35,0.132 -0.348,0.136 c -0.319,0.118 -0.6,0.216 -1.057,0.348 0.1,0.186 0.146,0.28 0.221,0.469 0.063,0.16 0.096,0.267 0.15,0.471 0.184,-0.093 0.266,-0.126 0.387,-0.18 0.309,-0.133 0.678,-0.287 0.979,-0.403 0.067,-0.027 0.248,-0.099 0.442,-0.168 0.037,0.111 0.073,0.203 0.093,0.249 0.383,0.979 1.054,1.336 1.895,1.006 0.422,-0.167 0.7,-0.468 0.756,-0.818 0.043,-0.243 -0.006,-0.492 -0.178,-0.929 -0.023,-0.058 -0.072,-0.17 -0.099,-0.233 -0.185,-0.396 -0.178,-0.379 -0.229,-0.504 -0.055,-0.144 -0.077,-0.215 -0.187,-0.568 z"
   id="path82" />

		<path
   fill="#ffffff"
   d="m 126.622,30.695 c -0.035,-0.233 -0.059,-0.348 -0.111,-0.544 -0.047,-0.172 -0.075,-0.255 -0.146,-0.426 0.502,-0.109 0.68,-0.144 0.966,-0.214 0.269,-0.059 0.638,-0.151 1.104,-0.268 0.453,-0.117 0.972,-0.254 1.264,-0.333 0.288,-0.077 0.371,-0.101 0.568,-0.165 -0.083,-0.314 -0.252,-0.793 -0.371,-1.054 0.136,-0.01 0.222,-0.027 0.307,-0.049 0.129,-0.035 0.158,-0.049 0.262,-0.102 0.18,0.85 0.2,0.953 0.326,1.427 0.176,0.655 0.277,0.979 0.486,1.61 -0.152,0.026 -0.225,0.041 -0.328,0.069 -0.09,0.022 -0.135,0.042 -0.239,0.083 -0.046,-0.409 -0.1,-0.706 -0.157,-0.925 l -0.041,-0.148 c -0.508,0.115 -0.704,0.163 -0.892,0.212 l -0.323,0.081 c -0.959,0.249 -0.719,0.19 -0.868,0.226 l -0.44,0.117 c -0.25,0.068 -0.668,0.191 -1.117,0.326 l -0.082,0.027 -0.084,0.021 z"
   id="path83" />

		<path
   fill="#ffffff"
   d="m 131.791,33.753 c -0.015,0.088 -0.02,0.132 -0.015,0.204 0.007,0.111 0.023,0.171 0.07,0.281 -0.351,0.175 -0.47,0.229 -0.858,0.431 -0.285,0.149 -0.876,0.459 -1.336,0.704 -0.479,0.257 -0.579,0.306 -0.878,0.459 0.353,0.151 0.592,0.248 1.49,0.595 0.896,0.341 1.164,0.436 1.754,0.632 -0.032,0.145 -0.041,0.214 -0.037,0.287 0.003,0.062 0.014,0.111 0.041,0.239 l -0.066,0.011 c -0.192,0.03 -0.013,0 -0.559,0.088 l -0.417,0.068 c -0.55,0.096 -0.245,0.04 -0.921,0.156 -1.612,0.273 -1.188,0.197 -1.419,0.243 -0.563,0.101 -0.669,0.122 -1.052,0.22 l -0.041,10e-4 c 0.021,-0.212 0.027,-0.341 0.017,-0.536 -0.014,-0.197 -0.024,-0.264 -0.063,-0.46 0.494,-0.046 0.76,-0.082 1.482,-0.187 0.75,-0.108 1.068,-0.156 1.539,-0.241 l -0.238,-0.091 c -0.805,-0.308 -0.92,-0.351 -1.605,-0.617 -0.619,-0.241 -0.843,-0.318 -1.273,-0.453 0.011,-0.05 0.011,-0.075 0.007,-0.118 -0.003,-0.048 -0.005,-0.081 -0.022,-0.136 0.279,-0.139 0.021,-0.006 0.809,-0.405 l 0.297,-0.152 c 1.186,-0.633 0.734,-0.389 1.363,-0.717 0.313,-0.161 0.184,-0.093 0.404,-0.211 -0.729,-0.047 -0.715,-0.047 -1.674,-0.077 -0.824,-0.024 -0.92,-0.025 -1.293,-0.015 0.02,-0.123 0.021,-0.198 0.014,-0.326 -0.006,-0.099 -0.016,-0.142 -0.049,-0.238 l 0.027,-0.001 c 0.668,0.083 1.113,0.13 2.027,0.196 0.579,0.045 1.4,0.096 1.932,0.131 l 0.18,0.007 0.182,0.013 z"
   id="path84" />

		<path
   fill="#ffffff"
   d="m 127.3,40.908 c 0.039,-0.348 0.058,-0.494 0.071,-0.652 0.018,-0.203 0.039,-0.504 0.06,-0.81 0.011,-0.13 0.013,-0.229 0.02,-0.444 1.088,0.146 1.532,0.191 2.767,0.303 0.723,0.064 1.145,0.098 1.74,0.119 -0.075,0.303 -0.096,0.461 -0.125,0.799 -0.021,0.243 -0.057,0.705 -0.075,0.992 -0.009,0.174 -0.015,0.291 -0.011,0.574 -0.113,-0.035 -0.191,-0.056 -0.283,-0.063 -0.127,-0.011 -0.168,-0.009 -0.29,0.013 0.102,-0.609 0.073,-0.434 0.089,-0.562 0.049,-0.33 0.08,-0.512 0.109,-0.841 -0.883,-0.104 -0.816,-0.1 -1.424,-0.153 -0.043,0.634 -0.032,0.46 -0.064,1.247 0,0.013 -0.006,0.076 -0.006,0.154 -0.109,-0.041 -0.169,-0.054 -0.263,-0.061 -0.107,-0.008 -0.169,-0.008 -0.284,0.014 0.076,-0.457 0.148,-0.988 0.176,-1.282 l 0.011,-0.11 c -0.301,-0.033 -0.32,-0.035 -0.513,-0.053 l -1.16,-0.098 c -0.013,0.074 -0.02,0.147 -0.021,0.166 -0.025,0.292 -0.039,0.887 -0.029,1.24 -0.113,-0.025 -0.186,-0.038 -0.272,-0.045 -0.132,-0.012 -0.166,-0.017 -0.281,-0.006 l 0.012,-0.047 0.009,-0.1 z"
   id="path85" />

		<path
   fill="#ffffff"
   d="m 129.27,43.377 c 0.934,0.204 1.344,0.297 1.74,0.391 -0.01,0.088 -0.024,0.153 -0.031,0.189 -0.105,0.494 -0.418,0.68 -0.966,0.563 -0.608,-0.128 -0.882,-0.491 -0.765,-1.035 z m -0.377,-0.965 c -0.398,-0.089 -0.701,-0.154 -0.882,-0.197 -0.271,-0.07 -0.474,-0.125 -0.853,-0.236 -0.014,0.197 -0.028,0.295 -0.064,0.471 -0.043,0.199 -0.07,0.299 -0.149,0.484 0.456,0.07 0.462,0.07 1.146,0.202 l 0.222,0.048 0.165,0.027 c 0.186,0.033 0.328,0.063 0.328,0.063 0.17,0.035 0.202,0.051 0.188,0.084 -0.005,0.018 -0.034,0.031 -0.111,0.045 -0.032,0.014 -0.11,0.035 -0.212,0.063 -0.089,0.026 -0.283,0.078 -0.539,0.15 -0.238,0.066 -0.471,0.129 -0.701,0.192 -0.381,0.115 -0.512,0.15 -0.71,0.196 -0.032,0.209 -0.053,0.312 -0.089,0.479 -0.035,0.165 -0.068,0.3 -0.137,0.593 0.248,-0.08 0.463,-0.154 0.514,-0.168 1.49,-0.506 1.087,-0.368 1.256,-0.428 0.332,-0.105 0.418,-0.133 0.684,-0.215 0.049,0.676 0.36,1.074 0.936,1.196 0.738,0.155 1.209,-0.198 1.39,-1.048 0.011,-0.061 0.034,-0.2 0.065,-0.375 0.047,-0.291 0.072,-0.451 0.1,-0.576 0.023,-0.107 0.056,-0.231 0.146,-0.527 -0.692,-0.115 -1.095,-0.188 -1.606,-0.296 z"
   id="path86" />

		<path
   fill="#ffffff"
   d="m 130.426,47.477 c -0.051,0.158 -0.078,0.271 -0.115,0.473 -1.045,-0.421 -1.676,-0.646 -2.758,-0.986 -0.632,-0.2 -0.985,-0.305 -1.535,-0.447 0.096,-0.215 0.143,-0.341 0.18,-0.459 0.06,-0.188 0.08,-0.276 0.129,-0.514 0.585,0.23 0.779,0.303 1.139,0.432 0.435,0.154 1.445,0.486 2.1,0.694 0.423,0.132 0.674,0.204 1.057,0.301 -0.095,0.208 -0.134,0.309 -0.197,0.506 z"
   id="path87" />

		<path
   fill="#ffffff"
   d="m 125.133,48.824 c 0.111,-0.206 0.164,-0.309 0.24,-0.498 0.07,-0.165 0.096,-0.248 0.144,-0.428 0.466,0.219 0.628,0.301 0.896,0.419 0.251,0.116 0.6,0.269 1.042,0.458 0.43,0.187 0.925,0.392 1.203,0.506 0.276,0.113 0.356,0.148 0.552,0.215 0.125,-0.299 0.281,-0.781 0.348,-1.06 0.113,0.073 0.191,0.113 0.27,0.146 0.126,0.051 0.159,0.057 0.274,0.079 -0.377,0.781 -0.423,0.876 -0.612,1.332 -0.258,0.625 -0.373,0.941 -0.593,1.572 -0.138,-0.071 -0.204,-0.107 -0.301,-0.146 -0.088,-0.037 -0.132,-0.05 -0.243,-0.083 0.213,-0.352 0.352,-0.619 0.438,-0.828 l 0.06,-0.144 c -0.475,-0.214 -0.658,-0.3 -0.837,-0.372 l -0.306,-0.134 c -0.913,-0.386 -0.687,-0.286 -0.826,-0.349 l -0.419,-0.176 c -0.243,-0.099 -0.647,-0.256 -1.085,-0.424 l -0.082,-0.027 -0.079,-0.033 z"
   id="path88" />

		<path
   fill="#ffffff"
   d="m 127.208,54.03 c -0.409,0.695 -1.274,0.759 -2.294,0.159 -1.066,-0.628 -1.492,-1.504 -1.074,-2.215 0.408,-0.693 1.254,-0.746 2.279,-0.144 1.121,0.656 1.522,1.465 1.089,2.2 z m 0.329,0.195 c 0.71,-1.208 0.358,-2.514 -0.872,-3.238 -1.241,-0.729 -2.436,-0.424 -3.152,0.795 -0.727,1.237 -0.349,2.55 0.949,3.313 1.158,0.678 2.366,0.341 3.075,-0.87 z"
   id="path89" />

		<path
   fill="#ffffff"
   d="m 122.626,58.688 c -0.607,-0.238 -0.848,-0.341 -1.497,-0.632 0.154,-0.177 0.181,-0.209 0.385,-0.432 0.107,-0.119 0.19,-0.211 0.369,-0.396 0.278,0.509 0.422,0.797 0.743,1.46 z m -1.258,-3.487 c -0.063,0.109 -0.09,0.151 -0.182,0.251 -0.063,0.067 -0.113,0.114 -0.203,0.173 0.09,0.142 -0.023,-0.045 0.355,0.572 0.049,0.088 0.129,0.227 0.349,0.641 -0.165,0.202 -0.266,0.312 -0.48,0.547 -0.224,0.247 -0.311,0.342 -0.479,0.506 -0.542,-0.239 -0.823,-0.367 -1.261,-0.602 -0.113,0.164 -0.171,0.235 -0.291,0.369 -0.14,0.154 -0.229,0.24 -0.405,0.395 l 0.038,0.036 c 0.311,0.108 0.367,0.126 0.971,0.368 0.249,0.092 0.026,0.008 0.744,0.294 1.357,0.547 1.125,0.453 2.254,0.931 0.35,0.151 0.193,0.084 0.477,0.199 0.051,-0.085 0.063,-0.099 0.14,-0.181 0.038,-0.046 0.091,-0.09 0.172,-0.159 -0.178,-0.312 -0.281,-0.516 -0.562,-1.051 -0.486,-0.927 -0.465,-0.89 -1.043,-2.072 -0.305,-0.62 -0.428,-0.881 -0.554,-1.18 z"
   id="path90" />

		<path
   fill="#ffffff"
   d="m 120.522,60.495 c 0.084,0.103 0.171,0.205 0.346,0.407 0.363,0.42 0.435,0.508 0.658,0.756 -0.188,0.123 -0.262,0.174 -0.414,0.302 -0.119,0.097 -0.21,0.181 -0.354,0.336 -0.189,-0.29 -0.266,-0.39 -0.464,-0.649 -0.227,-0.291 -0.634,-0.803 -0.938,-1.17 -0.597,-0.719 -0.911,-0.954 -1.31,-0.981 -0.266,-0.022 -0.5,0.06 -0.727,0.249 -0.352,0.289 -0.467,0.67 -0.346,1.115 0.096,0.34 0.294,0.637 1.002,1.49 0.438,0.531 0.563,0.672 1.132,1.311 -0.106,0.053 -0.148,0.081 -0.229,0.145 -0.1,0.086 -0.148,0.133 -0.234,0.238 -0.424,-0.587 -0.768,-1.029 -1.303,-1.688 -0.725,-0.894 -0.893,-1.231 -0.874,-1.758 0.011,-0.498 0.247,-0.935 0.694,-1.306 0.52,-0.43 1.1,-0.607 1.58,-0.492 0.35,0.084 0.667,0.323 1.047,0.783 z"
   id="path91" />

		<path
   fill="#ffffff"
   d="m 115.375,65.076 c 0.288,0.251 0.619,0.289 0.905,0.111 0.316,-0.199 0.412,-0.559 0.223,-0.858 -0.17,-0.273 -0.406,-0.338 -1.09,-0.29 -0.898,0.059 -1.277,-0.082 -1.61,-0.615 -0.481,-0.771 -0.259,-1.573 0.575,-2.096 0.329,-0.207 0.597,-0.287 0.997,-0.301 0.073,0.27 0.185,0.577 0.286,0.797 l -0.106,0.07 c -0.321,-0.347 -0.724,-0.399 -1.116,-0.156 -0.343,0.217 -0.447,0.629 -0.246,0.952 0.11,0.176 0.254,0.276 0.455,0.307 0.195,0.035 0.172,0.034 0.754,10e-4 0.803,-0.053 1.182,0.105 1.514,0.631 0.439,0.704 0.259,1.447 -0.445,1.886 -0.348,0.221 -0.63,0.294 -1.016,0.267 -0.025,-0.213 -0.053,-0.327 -0.169,-0.651 z"
   id="path92" />

		<path
   fill="#ffffff"
   d="m 112.819,65.363 c 0.049,0.102 0.102,0.211 0.168,0.365 0.066,0.138 -0.021,-0.059 0.273,0.602 l 0.096,0.214 0.023,0.048 0.024,0.055 0.022,0.057 c -0.066,0.031 -0.126,0.068 -0.164,0.087 -0.435,0.207 -0.76,0.05 -1.008,-0.468 -0.306,-0.641 -0.192,-0.99 0.409,-1.285 z m 1.527,1.057 c -0.281,-0.547 -0.473,-0.932 -0.521,-1.035 l -0.131,-0.27 -0.12,-0.27 -0.292,-0.607 -0.154,-0.343 -0.163,-0.336 c -0.141,-0.31 -0.257,-0.584 -0.422,-1.028 -0.178,0.115 -0.268,0.166 -0.453,0.252 -0.153,0.074 -0.259,0.117 -0.456,0.182 0.104,0.179 0.142,0.258 0.205,0.377 0.155,0.296 0.335,0.654 0.472,0.943 0.032,0.068 0.115,0.242 0.201,0.434 -0.11,0.045 -0.198,0.084 -0.243,0.107 -0.948,0.455 -1.257,1.148 -0.868,1.964 0.195,0.409 0.515,0.665 0.869,0.695 0.245,0.024 0.492,-0.042 0.916,-0.243 0.053,-0.027 0.162,-0.088 0.223,-0.114 0.382,-0.214 0.366,-0.204 0.487,-0.263 0.14,-0.068 0.209,-0.094 0.554,-0.229 z"
   id="path93" />

		<path
   fill="#ffffff"
   d="m 79.488,51.547 c -0.203,0.284 -0.211,0.586 -0.022,0.831 0.208,0.271 0.542,0.326 0.799,0.131 0.23,-0.179 0.269,-0.4 0.167,-1.014 -0.132,-0.81 -0.035,-1.167 0.418,-1.517 0.656,-0.504 1.406,-0.371 1.95,0.338 0.216,0.281 0.312,0.517 0.359,0.88 -0.238,0.089 -0.507,0.219 -0.699,0.33 l -0.072,-0.094 c 0.286,-0.318 0.3,-0.69 0.044,-1.022 -0.225,-0.293 -0.61,-0.354 -0.886,-0.141 -0.148,0.116 -0.227,0.253 -0.238,0.438 -0.015,0.182 -0.015,0.16 0.066,0.686 0.116,0.725 0.006,1.082 -0.443,1.428 -0.599,0.46 -1.289,0.359 -1.75,-0.239 -0.229,-0.299 -0.319,-0.547 -0.33,-0.899 0.19,-0.041 0.294,-0.077 0.575,-0.209 z"
   id="path94" />

		<path
   fill="#ffffff"
   d="m 77.695,50.24 c -0.077,-0.131 -0.138,-0.218 -0.254,-0.364 0.918,-0.46 1.451,-0.755 2.338,-1.288 0.519,-0.311 0.803,-0.49 1.232,-0.779 0.089,0.193 0.146,0.303 0.205,0.398 0.093,0.155 0.141,0.223 0.275,0.398 -0.511,0.262 -0.68,0.35 -0.981,0.519 -0.369,0.2 -1.207,0.693 -1.744,1.015 -0.345,0.208 -0.545,0.336 -0.84,0.541 -0.089,-0.194 -0.135,-0.281 -0.231,-0.44 z"
   id="path95" />

		<path
   fill="#ffffff"
   d="m 76.291,45.313 c -0.262,0.387 -0.313,0.803 -0.148,1.197 0.338,0.812 1.223,1.049 2.271,0.613 0.96,-0.402 1.365,-1.137 1.049,-1.896 -0.089,-0.212 -0.199,-0.385 -0.346,-0.53 -0.224,0.083 -0.353,0.136 -0.522,0.205 -0.332,0.14 -0.524,0.233 -0.81,0.382 -0.051,-0.18 -0.074,-0.253 -0.14,-0.41 -0.049,-0.119 -0.096,-0.219 -0.197,-0.392 0.291,-0.079 0.406,-0.122 0.799,-0.284 0.282,-0.117 0.492,-0.211 0.733,-0.332 0.075,0.105 0.018,0.023 0.315,0.404 0.197,0.257 0.386,0.576 0.523,0.905 0.513,1.231 0.1,2.298 -1.075,2.788 -1.216,0.508 -2.371,0 -2.899,-1.264 -0.208,-0.501 -0.256,-0.821 -0.198,-1.363 0.257,-0.016 0.27,-0.02 0.616,-0.09 z"
   id="path96" />

		<path
   fill="#ffffff"
   d="m 74.901,43.512 c -0.036,-0.148 -0.067,-0.249 -0.138,-0.422 1.012,-0.179 1.606,-0.305 2.611,-0.563 0.584,-0.148 0.909,-0.238 1.402,-0.394 0.029,0.213 0.054,0.335 0.083,0.442 0.043,0.175 0.071,0.254 0.148,0.458 -0.564,0.104 -0.751,0.142 -1.089,0.214 -0.413,0.091 -1.354,0.32 -1.962,0.475 -0.388,0.098 -0.619,0.163 -0.961,0.274 -0.027,-0.207 -0.046,-0.305 -0.094,-0.484 z"
   id="path97" />

		<path
   fill="#ffffff"
   d="m 76.19,41.504 c -0.864,0.12 -1.182,0.17 -1.71,0.268 -0.006,-0.222 -0.018,-0.344 -0.038,-0.488 -0.025,-0.172 -0.04,-0.246 -0.088,-0.407 0.346,-0.027 0.516,-0.04 0.96,-0.089 0.569,-0.068 1.076,-0.134 1.59,-0.207 0.531,-0.072 0.699,-0.096 1.121,-0.166 -0.003,-0.063 -0.013,-0.123 -0.014,-0.135 -0.031,-0.222 -0.041,-0.293 -0.083,-0.504 -0.052,-0.235 -0.085,-0.39 -0.145,-0.647 0.13,0.011 0.185,0.009 0.282,-0.005 0.077,-0.012 0.125,-0.021 0.212,-0.063 0.037,0.397 0.098,1.011 0.128,1.222 0.043,0.316 0.107,0.67 0.164,0.952 -0.667,0.04 -1.083,0.088 -2.024,0.221 z"
   id="path98" />

		<path
   fill="#ffffff"
   d="m 75.849,38.457 c -0.872,0.006 -1.193,0.016 -1.729,0.039 0.021,-0.218 0.027,-0.342 0.026,-0.486 -0.002,-0.174 -0.006,-0.248 -0.033,-0.414 0.347,0.02 0.518,0.03 0.964,0.035 0.574,0.01 1.084,0.012 1.603,0.01 0.536,-0.006 0.706,-0.008 1.133,-0.02 0.005,-0.063 0.005,-0.124 0.004,-0.136 -10e-4,-0.223 -0.002,-0.296 -0.014,-0.508 -0.021,-0.243 -0.035,-0.399 -0.061,-0.662 0.128,0.026 0.184,0.033 0.281,0.031 0.08,0 0.13,-0.007 0.219,-0.034 -0.015,0.396 -0.036,1.015 -0.035,1.227 0.001,0.32 0.017,0.678 0.038,0.965 C 77.58,38.457 77.16,38.449 76.21,38.455 Z"
   id="path99" />

		<path
   fill="#ffffff"
   d="m 75.532,35.497 c -0.12,-0.019 -0.24,-0.036 -0.483,-0.066 -0.501,-0.068 -0.604,-0.082 -0.907,-0.117 0.056,-0.197 0.073,-0.278 0.102,-0.455 0.021,-0.14 0.031,-0.253 0.036,-0.444 0.302,0.08 0.415,0.103 0.709,0.161 0.329,0.062 0.918,0.163 1.346,0.231 0.842,0.127 1.197,0.097 1.484,-0.126 0.195,-0.146 0.308,-0.343 0.349,-0.609 0.063,-0.41 -0.091,-0.741 -0.443,-0.969 -0.269,-0.173 -0.585,-0.256 -1.583,-0.407 -0.621,-0.098 -0.79,-0.117 -1.566,-0.209 0.042,-0.102 0.053,-0.144 0.07,-0.239 0.016,-0.116 0.018,-0.177 0.015,-0.303 0.643,0.143 1.146,0.239 1.911,0.362 1.034,0.169 1.354,0.299 1.661,0.669 0.29,0.344 0.396,0.786 0.315,1.308 -0.094,0.608 -0.383,1.081 -0.779,1.292 -0.288,0.155 -0.65,0.183 -1.186,0.102 z"
   id="path100" />

		<path
   fill="#ffffff"
   d="m 75.244,29.873 c 0.047,-0.066 0.066,-0.098 0.091,-0.161 0.036,-0.096 0.044,-0.151 0.048,-0.26 0.357,-0.011 0.475,-0.012 0.875,-0.032 0.292,-0.01 0.902,-0.045 1.376,-0.07 0.495,-0.03 0.594,-0.033 0.898,-0.044 -0.231,-0.261 -0.393,-0.432 -1.004,-1.061 -0.613,-0.625 -0.798,-0.805 -1.208,-1.194 0.082,-0.106 0.114,-0.16 0.139,-0.222 0.021,-0.051 0.031,-0.097 0.057,-0.214 l 0.059,0.017 c 0.169,0.05 0.012,0.005 0.493,0.14 l 0.373,0.104 c 0.491,0.131 0.22,0.061 0.822,0.224 1.439,0.387 1.059,0.288 1.268,0.34 0.506,0.13 0.6,0.155 0.954,0.221 l 0.035,0.012 c -0.099,0.167 -0.152,0.273 -0.219,0.44 -0.065,0.167 -0.082,0.226 -0.125,0.402 -0.425,-0.148 -0.657,-0.221 -1.298,-0.41 -0.662,-0.197 -0.947,-0.278 -1.366,-0.39 l 0.164,0.167 c 0.546,0.563 0.627,0.643 1.092,1.126 0.419,0.433 0.577,0.584 0.88,0.859 -0.025,0.039 -0.033,0.059 -0.048,0.096 -0.018,0.042 -0.028,0.069 -0.033,0.118 -0.286,0.01 -0.021,0 -0.823,0.03 l -0.307,0.012 c -1.224,0.069 -0.754,0.041 -1.401,0.072 -0.32,0.013 -0.187,0.003 -0.414,0.02 0.583,0.316 0.572,0.313 1.355,0.703 0.674,0.334 0.75,0.371 1.064,0.506 -0.064,0.095 -0.093,0.157 -0.136,0.266 -0.032,0.085 -0.042,0.122 -0.051,0.215 l -0.023,-0.009 c -0.522,-0.323 -0.872,-0.533 -1.601,-0.94 -0.462,-0.257 -1.122,-0.61 -1.55,-0.843 l -0.146,-0.078 -0.145,-0.08 z"
   id="path101" />

		<path
   fill="#ffffff"
   d="m 80.115,22.423 c -0.331,-0.119 -0.622,-0.042 -0.805,0.206 -0.202,0.276 -0.163,0.613 0.098,0.805 0.236,0.172 0.457,0.147 1.019,-0.122 0.742,-0.35 1.11,-0.356 1.573,-0.018 0.667,0.492 0.747,1.247 0.213,1.969 -0.208,0.284 -0.409,0.443 -0.744,0.587 -0.151,-0.204 -0.351,-0.426 -0.509,-0.579 l 0.069,-0.095 c 0.384,0.187 0.744,0.098 0.995,-0.241 0.219,-0.299 0.169,-0.683 -0.11,-0.889 -0.154,-0.111 -0.308,-0.15 -0.488,-0.108 -0.177,0.035 -0.16,0.03 -0.64,0.253 -0.664,0.312 -1.037,0.309 -1.493,-0.029 -0.607,-0.449 -0.704,-1.139 -0.255,-1.748 0.221,-0.305 0.437,-0.459 0.772,-0.565 0.093,0.172 0.157,0.26 0.363,0.494 z"
   id="path102" />

		<path
   fill="#ffffff"
   d="m 83.298,19.085 c -0.435,-0.097 -0.777,-0.007 -1.074,0.283 -0.541,0.531 -0.396,1.43 0.354,2.196 0.743,0.757 1.573,0.882 2.144,0.321 0.27,-0.261 0.384,-0.546 0.418,-1.033 l 0.069,-0.015 c 0.08,0.168 0.111,0.222 0.264,0.467 -0.103,0.321 -0.287,0.612 -0.58,0.898 -0.332,0.326 -0.733,0.558 -1.131,0.649 -0.656,0.156 -1.268,-0.053 -1.826,-0.624 -0.574,-0.582 -0.798,-1.188 -0.682,-1.849 0.078,-0.47 0.301,-0.884 0.666,-1.242 0.319,-0.315 0.656,-0.516 1.09,-0.65 0.163,0.293 0.206,0.361 0.343,0.542 z"
   id="path103" />

		<path
   fill="#ffffff"
   d="m 87.211,17.86 c -0.294,0.174 -0.385,0.233 -0.735,0.463 -0.256,0.171 -0.449,0.306 -0.685,0.477 0.217,0.354 0.25,0.397 0.364,0.571 0.268,0.406 0.466,0.685 0.766,1.064 -0.15,0.069 -0.2,0.096 -0.384,0.216 -0.198,0.132 -0.261,0.182 -0.396,0.297 -0.496,-0.874 -0.609,-1.056 -1.061,-1.737 -0.363,-0.549 -0.701,-1.048 -0.927,-1.36 -0.074,-0.111 -0.128,-0.185 -0.264,-0.357 0.189,-0.098 0.287,-0.154 0.41,-0.235 0.136,-0.09 0.212,-0.147 0.341,-0.265 0.209,0.354 0.334,0.556 0.438,0.722 l 0.117,0.177 c 0.305,0.471 0.196,0.308 0.329,0.506 0.435,-0.267 0.615,-0.379 0.779,-0.487 0.215,-0.141 0.357,-0.242 0.64,-0.452 L 86.841,17.3 c -0.475,-0.717 -0.603,-0.9 -0.844,-1.203 0.174,-0.085 0.255,-0.131 0.397,-0.226 0.163,-0.109 0.235,-0.162 0.37,-0.281 0.166,0.3 0.229,0.405 0.399,0.685 0.253,0.412 0.588,0.926 0.985,1.526 0.329,0.499 0.528,0.776 0.87,1.243 -0.171,0.085 -0.251,0.131 -0.47,0.277 -0.136,0.09 -0.184,0.129 -0.3,0.236 -0.209,-0.368 -0.224,-0.387 -0.322,-0.556 -0.193,-0.333 -0.348,-0.588 -0.56,-0.907 z"
   id="path104" />

		<path
   fill="#ffffff"
   d="m 90.15,14.349 c 0.684,-0.268 1.338,0.176 1.731,1.18 0.413,1.05 0.222,1.917 -0.48,2.192 -0.682,0.267 -1.317,-0.172 -1.713,-1.181 -0.428,-1.102 -0.264,-1.907 0.462,-2.191 z m -0.125,-0.322 c -1.192,0.464 -1.675,1.597 -1.2,2.811 0.479,1.22 1.504,1.675 2.706,1.204 1.215,-0.476 1.686,-1.629 1.186,-2.905 -0.448,-1.139 -1.503,-1.576 -2.692,-1.11 z"
   id="path105" />

		<path
   fill="#ffffff"
   d="m 93.724,14.734 c -0.171,-0.854 -0.24,-1.171 -0.368,-1.693 0.221,-0.019 0.343,-0.036 0.488,-0.065 0.17,-0.034 0.238,-0.055 0.399,-0.11 0.047,0.345 0.068,0.514 0.144,0.953 0.102,0.563 0.197,1.067 0.298,1.574 0.104,0.526 0.138,0.694 0.232,1.11 0.062,-0.005 0.123,-0.018 0.132,-0.021 0.22,-0.043 0.292,-0.057 0.497,-0.111 0.234,-0.064 0.385,-0.107 0.64,-0.184 -0.002,0.132 0.002,0.186 0.021,0.283 0.016,0.079 0.031,0.125 0.074,0.208 -0.392,0.061 -1.001,0.158 -1.21,0.199 -0.314,0.063 -0.663,0.144 -0.94,0.218 -0.08,-0.661 -0.152,-1.075 -0.337,-2.009 z"
   id="path106" />

		<path
   fill="#ffffff"
   d="m 98.106,13.542 c 0.234,0.547 0.318,0.769 0.543,1.377 -0.212,0.014 -0.253,0.017 -0.525,0.024 -0.146,0.006 -0.258,0.01 -0.494,0.013 0.158,-0.506 0.251,-0.784 0.476,-1.414 z m -1.467,3.041 c 0.111,-0.029 0.158,-0.034 0.281,-0.039 0.082,-0.004 0.145,0 0.24,0.021 0.033,-0.148 -0.014,0.042 0.146,-0.597 0.025,-0.086 0.064,-0.229 0.197,-0.636 0.234,-0.019 0.367,-0.025 0.66,-0.036 0.303,-0.011 0.42,-0.016 0.634,-0.009 0.192,0.503 0.285,0.769 0.413,1.202 0.179,-0.03 0.262,-0.039 0.424,-0.046 0.189,-0.004 0.303,-0.003 0.52,0.015 l -0.005,-0.049 c -0.126,-0.271 -0.151,-0.318 -0.378,-0.866 -0.097,-0.222 -0.013,-0.022 -0.283,-0.673 -0.509,-1.231 -0.424,-1.021 -0.832,-2.061 -0.124,-0.324 -0.068,-0.18 -0.172,-0.439 -0.09,0.023 -0.105,0.023 -0.209,0.027 -0.057,0.002 -0.117,-0.002 -0.211,-0.011 -0.09,0.314 -0.155,0.511 -0.328,1.037 -0.293,0.906 -0.281,0.87 -0.686,1.999 -0.208,0.594 -0.299,0.842 -0.413,1.112 z"
   id="path107" />

		<path
   fill="#ffffff"
   d="m 102.336,16.724 c -0.316,-0.042 -0.449,-0.065 -0.594,-0.083 -0.183,-0.022 -0.457,-0.05 -0.734,-0.076 -0.117,-0.014 -0.209,-0.02 -0.404,-0.032 0.165,-0.985 0.219,-1.39 0.354,-2.51 0.078,-0.658 0.119,-1.041 0.158,-1.583 0.271,0.077 0.416,0.099 0.721,0.137 0.224,0.025 0.644,0.071 0.904,0.096 0.156,0.012 0.264,0.02 0.521,0.026 -0.033,0.1 -0.055,0.17 -0.064,0.255 -0.014,0.114 -0.014,0.153 0.002,0.266 -0.55,-0.109 -0.393,-0.079 -0.506,-0.098 -0.301,-0.055 -0.465,-0.088 -0.768,-0.124 -0.117,0.804 -0.109,0.742 -0.176,1.292 0.574,0.058 0.418,0.044 1.135,0.095 0.01,10e-4 0.067,0.009 0.139,0.012 -0.041,0.098 -0.053,0.152 -0.062,0.236 -0.012,0.099 -0.014,0.153 0.002,0.258 -0.413,-0.081 -0.896,-0.163 -1.162,-0.196 l -0.101,-0.011 c -0.038,0.272 -0.041,0.29 -0.061,0.467 l -0.122,1.052 c 0.067,0.013 0.133,0.021 0.148,0.023 0.269,0.033 0.808,0.061 1.128,0.063 -0.021,0.101 -0.035,0.168 -0.045,0.245 -0.017,0.123 -0.02,0.152 -0.016,0.255 l -0.045,-0.009 -0.086,-0.011 z"
   id="path108" />

		<path
   fill="#ffffff"
   d="m 106.855,13.572 c 0.065,0.047 0.101,0.067 0.165,0.092 0.092,0.038 0.146,0.047 0.256,0.05 0.008,0.357 0.009,0.476 0.023,0.876 0.011,0.291 0.039,0.901 0.061,1.375 0.025,0.495 0.028,0.595 0.039,0.9 0.262,-0.229 0.434,-0.392 1.068,-0.997 0.629,-0.607 0.811,-0.79 1.204,-1.199 0.104,0.081 0.158,0.116 0.22,0.141 0.053,0.02 0.098,0.032 0.213,0.058 l -0.018,0.059 c -0.05,0.171 -0.006,0.011 -0.143,0.494 l -0.105,0.371 c -0.137,0.491 -0.063,0.218 -0.232,0.82 -0.398,1.436 -0.295,1.056 -0.349,1.265 -0.134,0.504 -0.161,0.599 -0.228,0.952 l -0.014,0.034 c -0.166,-0.099 -0.271,-0.153 -0.439,-0.219 -0.166,-0.068 -0.227,-0.084 -0.4,-0.129 0.152,-0.424 0.226,-0.656 0.42,-1.294 0.205,-0.661 0.286,-0.943 0.4,-1.364 l -0.166,0.164 c -0.568,0.542 -0.648,0.62 -1.134,1.083 -0.438,0.416 -0.592,0.571 -0.868,0.874 -0.038,-0.028 -0.057,-0.036 -0.094,-0.051 -0.042,-0.017 -0.068,-0.028 -0.119,-0.033 -0.007,-0.285 0.001,-0.021 -0.023,-0.822 l -0.01,-0.308 c -0.06,-1.224 -0.035,-0.754 -0.062,-1.403 -0.011,-0.319 -0.005,-0.185 -0.015,-0.412 -0.324,0.58 -0.319,0.569 -0.715,1.348 -0.342,0.672 -0.377,0.748 -0.515,1.061 -0.095,-0.063 -0.155,-0.094 -0.266,-0.137 -0.083,-0.034 -0.122,-0.044 -0.214,-0.055 l 0.01,-0.021 c 0.326,-0.52 0.539,-0.867 0.951,-1.595 0.26,-0.46 0.621,-1.118 0.857,-1.542 l 0.076,-0.146 0.082,-0.146 z"
   id="path109" />

		<path
   fill="#ffffff"
   d="m 112.278,17.46 c -0.133,0.579 -0.193,0.81 -0.368,1.434 -0.18,-0.114 -0.212,-0.135 -0.438,-0.289 -0.123,-0.081 -0.216,-0.143 -0.409,-0.277 0.422,-0.319 0.663,-0.489 1.215,-0.868 z m -2.969,1.606 c 0.105,0.042 0.146,0.062 0.248,0.131 0.07,0.047 0.117,0.084 0.184,0.161 0.114,-0.101 -0.037,0.025 0.469,-0.398 0.07,-0.057 0.186,-0.149 0.529,-0.402 0.203,0.121 0.316,0.195 0.559,0.358 0.252,0.168 0.35,0.233 0.52,0.363 -0.143,0.521 -0.221,0.791 -0.371,1.219 0.163,0.079 0.236,0.121 0.373,0.21 0.156,0.106 0.248,0.174 0.412,0.312 l 0.025,-0.039 c 0.056,-0.295 0.063,-0.347 0.2,-0.925 0.05,-0.236 0.005,-0.025 0.163,-0.709 0.308,-1.298 0.254,-1.077 0.532,-2.159 0.091,-0.336 0.05,-0.188 0.118,-0.458 -0.084,-0.035 -0.101,-0.042 -0.184,-0.1 -0.045,-0.03 -0.094,-0.069 -0.166,-0.132 -0.257,0.201 -0.428,0.322 -0.871,0.647 -0.77,0.564 -0.739,0.542 -1.727,1.221 -0.516,0.359 -0.736,0.506 -0.988,0.661 z"
   id="path110" />

		<path
   fill="#ffffff"
   d="m 114.647,20.357 c 0.604,-0.628 0.871,-0.904 1.136,-1.166 0.062,0.049 0.104,0.092 0.132,0.115 0.332,0.316 0.326,0.647 -0.027,1.021 -0.388,0.409 -0.8,0.445 -1.168,0.098 z m -0.93,-0.169 c -0.26,0.266 -0.453,0.47 -0.576,0.59 -0.182,0.177 -0.321,0.306 -0.589,0.549 0.148,0.104 0.216,0.162 0.333,0.274 0.137,0.127 0.201,0.198 0.306,0.347 0.272,-0.32 0.276,-0.324 0.705,-0.792 l 0.142,-0.15 0.102,-0.115 c 0.113,-0.128 0.205,-0.224 0.205,-0.224 0.111,-0.114 0.135,-0.134 0.155,-0.106 0.013,0.012 0.008,0.041 -0.019,0.108 -0.004,0.031 -0.025,0.102 -0.054,0.194 -0.021,0.08 -0.072,0.258 -0.138,0.491 -0.065,0.214 -0.125,0.425 -0.188,0.637 -0.091,0.349 -0.127,0.466 -0.188,0.646 0.148,0.122 0.216,0.187 0.33,0.294 0.113,0.108 0.201,0.199 0.395,0.392 0.058,-0.231 0.102,-0.433 0.113,-0.479 0.324,-1.399 0.235,-1.021 0.271,-1.181 0.074,-0.307 0.096,-0.386 0.156,-0.631 0.549,0.286 1.008,0.235 1.377,-0.156 0.475,-0.5 0.426,-1.033 -0.148,-1.576 -0.041,-0.04 -0.14,-0.125 -0.262,-0.232 -0.203,-0.176 -0.314,-0.272 -0.397,-0.353 -0.073,-0.069 -0.155,-0.155 -0.342,-0.365 -0.42,0.483 -0.667,0.759 -0.994,1.103 z"
   id="path111" />

		<path
   fill="#ffffff"
   d="m 117.463,22.961 c 0.082,-0.064 0.17,-0.129 0.293,-0.219 0.112,-0.083 -0.045,0.029 0.487,-0.356 l 0.172,-0.125 0.04,-0.029 0.041,-0.034 0.049,-0.03 c 0.039,0.054 0.084,0.099 0.105,0.131 0.268,0.346 0.188,0.667 -0.227,0.985 -0.514,0.394 -0.846,0.359 -1.223,-0.122 z m 0.655,-1.562 c -0.436,0.355 -0.741,0.597 -0.824,0.659 l -0.218,0.168 -0.214,0.159 -0.489,0.374 -0.274,0.203 -0.271,0.207 c -0.25,0.186 -0.471,0.339 -0.838,0.571 0.136,0.137 0.199,0.208 0.312,0.354 0.095,0.126 0.153,0.209 0.249,0.374 0.14,-0.127 0.201,-0.175 0.295,-0.254 0.234,-0.194 0.522,-0.42 0.754,-0.598 0.054,-0.041 0.193,-0.149 0.346,-0.26 0.062,0.089 0.115,0.161 0.145,0.197 0.582,0.761 1.26,0.903 1.914,0.402 0.327,-0.251 0.496,-0.584 0.455,-0.907 -0.022,-0.221 -0.129,-0.43 -0.389,-0.768 -0.035,-0.044 -0.107,-0.129 -0.144,-0.178 -0.263,-0.302 -0.253,-0.289 -0.327,-0.387 -0.086,-0.11 -0.121,-0.169 -0.307,-0.449 z"
   id="path112" />

		<path
   fill="#ffffff"
   d="m 119.325,25.034 c 0.107,-0.058 0.214,-0.114 0.428,-0.23 0.444,-0.244 0.537,-0.291 0.802,-0.442 0.07,0.19 0.104,0.269 0.187,0.428 0.066,0.124 0.123,0.221 0.23,0.379 -0.291,0.113 -0.395,0.161 -0.665,0.29 -0.302,0.144 -0.838,0.408 -1.222,0.609 -0.758,0.393 -1.025,0.626 -1.126,0.977 -0.072,0.232 -0.044,0.458 0.08,0.697 0.191,0.368 0.508,0.545 0.929,0.523 0.318,-0.021 0.623,-0.141 1.521,-0.607 0.555,-0.289 0.704,-0.371 1.383,-0.757 0.029,0.106 0.044,0.148 0.088,0.232 0.053,0.105 0.088,0.157 0.166,0.255 -0.604,0.264 -1.066,0.486 -1.757,0.837 -0.934,0.472 -1.269,0.557 -1.734,0.439 -0.44,-0.106 -0.786,-0.399 -1.028,-0.868 -0.284,-0.548 -0.33,-1.1 -0.137,-1.504 0.145,-0.295 0.419,-0.532 0.9,-0.782 z"
   id="path113" />

		<path
   fill="#ffffff"
   d="m 121.025,30.201 c 0.835,-0.251 1.203,-0.359 1.563,-0.456 0.028,0.072 0.046,0.13 0.056,0.163 0.137,0.439 -0.031,0.724 -0.52,0.875 -0.541,0.166 -0.918,-0.004 -1.068,-0.486 z m -0.727,-0.604 c -0.357,0.106 -0.625,0.188 -0.789,0.233 -0.247,0.063 -0.433,0.11 -0.784,0.188 0.078,0.165 0.109,0.248 0.156,0.402 0.055,0.177 0.076,0.269 0.095,0.452 0.395,-0.144 0.401,-0.146 1.003,-0.343 l 0.199,-0.06 0.143,-0.05 c 0.161,-0.057 0.289,-0.095 0.289,-0.095 0.152,-0.047 0.182,-0.053 0.186,-0.018 0.005,0.018 -0.013,0.041 -0.068,0.086 -0.017,0.024 -0.072,0.074 -0.139,0.143 -0.061,0.059 -0.191,0.188 -0.363,0.356 -0.162,0.157 -0.318,0.312 -0.477,0.464 -0.25,0.26 -0.34,0.347 -0.48,0.471 0.068,0.179 0.098,0.27 0.143,0.419 0.047,0.152 0.076,0.27 0.153,0.533 0.162,-0.173 0.3,-0.326 0.333,-0.359 0.971,-1.061 0.707,-0.776 0.816,-0.898 0.215,-0.23 0.273,-0.288 0.447,-0.471 0.337,0.519 0.763,0.698 1.275,0.541 0.657,-0.203 0.875,-0.692 0.645,-1.448 -0.018,-0.054 -0.062,-0.175 -0.115,-0.329 -0.09,-0.254 -0.139,-0.392 -0.175,-0.505 -0.028,-0.095 -0.058,-0.209 -0.116,-0.484 -0.604,0.214 -0.957,0.335 -1.408,0.474 z"
   id="path114" />

		<path
   fill="#ffffff"
   d="m 123.276,35.998 c 0.357,-0.302 0.52,-0.691 0.469,-1.113 -0.107,-0.873 -0.896,-1.342 -2.019,-1.206 -1.034,0.125 -1.626,0.721 -1.528,1.539 0.029,0.229 0.09,0.423 0.189,0.604 0.237,-0.018 0.379,-0.033 0.561,-0.057 0.354,-0.041 0.565,-0.078 0.883,-0.146 -0.002,0.187 0,0.263 0.021,0.43 0.016,0.13 0.035,0.242 0.084,0.433 -0.301,-0.005 -0.424,0.004 -0.846,0.056 -0.305,0.037 -0.533,0.07 -0.796,0.119 -0.048,-0.119 -0.011,-0.027 -0.194,-0.475 -0.123,-0.302 -0.213,-0.656 -0.258,-1.013 -0.16,-1.326 0.526,-2.237 1.791,-2.391 1.309,-0.156 2.283,0.645 2.448,2.001 0.065,0.541 0.023,0.86 -0.18,1.367 -0.253,-0.055 -0.265,-0.054 -0.616,-0.078 z"
   id="path115" />

		<path
   fill="#ffffff"
   d="m 119.991,39.161 c 0.022,-0.319 0.035,-0.452 0.041,-0.599 0.01,-0.185 0.019,-0.459 0.027,-0.74 0.004,-0.115 0.004,-0.205 0.002,-0.404 0.994,0.096 1.402,0.121 2.529,0.178 0.662,0.033 1.045,0.047 1.587,0.045 -0.056,0.281 -0.069,0.426 -0.083,0.732 -0.011,0.225 -0.028,0.645 -0.033,0.908 -0.003,0.156 -0.002,0.262 0.011,0.523 -0.103,-0.029 -0.177,-0.043 -0.261,-0.048 -0.116,-0.005 -0.153,-0.002 -0.265,0.021 0.072,-0.559 0.051,-0.395 0.062,-0.515 0.035,-0.3 0.055,-0.468 0.071,-0.77 -0.808,-0.063 -0.749,-0.061 -1.303,-0.087 -0.016,0.575 -0.014,0.421 -0.014,1.137 0,0.013 -0.002,0.068 -10e-4,0.141 -0.102,-0.032 -0.156,-0.041 -0.24,-0.044 -0.098,-0.007 -0.153,-0.002 -0.26,0.02 0.054,-0.418 0.102,-0.904 0.115,-1.173 l 0.005,-0.102 c -0.274,-0.018 -0.29,-0.018 -0.469,-0.027 l -1.06,-0.049 c -0.009,0.066 -0.013,0.135 -0.014,0.15 -0.013,0.27 -0.002,0.811 0.018,1.129 -0.102,-0.017 -0.17,-0.025 -0.25,-0.027 -0.12,-0.006 -0.152,-0.008 -0.256,0.002 l 0.008,-0.043 0.006,-0.09 z"
   id="path116" />

		<path
   fill="#ffffff"
   d="m 121.306,41.04 c -0.626,-0.142 -0.989,-0.21 -1.507,-0.297 0.048,-0.096 0.064,-0.151 0.082,-0.233 0.023,-0.092 0.027,-0.148 0.027,-0.264 0.97,0.307 1.342,0.403 2.922,0.756 0.466,0.102 0.705,0.15 1.088,0.225 -0.049,0.109 -0.068,0.17 -0.092,0.271 -0.019,0.083 -0.022,0.128 -0.017,0.216 -0.329,0.152 -0.46,0.219 -1.009,0.522 -0.43,0.243 -1.018,0.554 -1.608,0.854 -0.212,0.111 0.014,-0.004 -0.691,0.35 l 0.345,0.077 0.316,0.069 c 1.184,0.266 1.203,0.264 2.133,0.438 -0.049,0.097 -0.066,0.154 -0.084,0.238 -0.014,0.055 -0.017,0.07 -0.042,0.238 -0.667,-0.201 -1.132,-0.322 -1.784,-0.479 -0.244,-0.061 -0.025,-0.004 -0.684,-0.157 l -0.867,-0.194 -0.225,-0.056 -0.232,-0.052 c -0.012,-0.002 -0.109,-0.021 -0.197,-0.039 0.048,-0.108 0.067,-0.167 0.084,-0.232 0.016,-0.083 0.018,-0.119 0.014,-0.209 0.891,-0.412 1.377,-0.657 2.186,-1.094 0.199,-0.111 0.028,-0.016 0.531,-0.289 0.606,-0.336 0.393,-0.219 0.643,-0.351 -0.309,-0.075 -0.285,-0.069 -0.582,-0.144 z"
   id="path117" />

		<path
   fill="#ffffff"
   d="m 121.243,47.272 c 0.35,0.034 0.613,-0.113 0.729,-0.398 0.132,-0.315 0.01,-0.632 -0.29,-0.753 -0.271,-0.111 -0.48,-0.033 -0.959,0.365 -0.634,0.523 -0.988,0.619 -1.52,0.404 -0.767,-0.314 -1.029,-1.027 -0.692,-1.857 0.135,-0.327 0.291,-0.529 0.578,-0.75 0.197,0.158 0.443,0.327 0.637,0.436 l -0.043,0.109 c -0.419,-0.088 -0.749,0.089 -0.908,0.478 -0.139,0.342 0.004,0.703 0.326,0.832 0.176,0.073 0.334,0.071 0.499,-0.013 0.163,-0.078 0.146,-0.068 0.558,-0.4 0.566,-0.467 0.93,-0.553 1.455,-0.342 0.699,0.286 0.963,0.934 0.677,1.635 -0.142,0.347 -0.309,0.55 -0.608,0.735 -0.131,-0.146 -0.217,-0.214 -0.474,-0.391 z"
   id="path118" />

		<path
   fill="#ffffff"
   d="m 121.016,49.482 c -0.074,0.133 -0.118,0.229 -0.186,0.402 -0.859,-0.561 -1.385,-0.872 -2.293,-1.369 -0.527,-0.291 -0.824,-0.448 -1.294,-0.672 0.126,-0.174 0.19,-0.28 0.245,-0.378 0.084,-0.157 0.121,-0.233 0.203,-0.437 0.482,0.308 0.643,0.41 0.942,0.586 0.361,0.217 1.205,0.691 1.756,0.994 0.352,0.193 0.563,0.303 0.89,0.455 -0.118,0.172 -0.173,0.257 -0.263,0.419 z"
   id="path119" />

		<path
   fill="#ffffff"
   d="m 118.433,52.031 c 0.331,0.111 0.621,0.029 0.801,-0.225 0.198,-0.277 0.151,-0.612 -0.112,-0.8 -0.238,-0.168 -0.461,-0.14 -1.018,0.14 -0.734,0.364 -1.105,0.379 -1.57,0.046 -0.677,-0.478 -0.771,-1.229 -0.252,-1.962 0.205,-0.289 0.401,-0.451 0.732,-0.604 0.155,0.201 0.36,0.42 0.522,0.57 l -0.069,0.097 c -0.388,-0.181 -0.746,-0.083 -0.99,0.259 -0.213,0.301 -0.156,0.686 0.127,0.888 0.154,0.108 0.311,0.144 0.49,0.099 0.177,-0.039 0.156,-0.033 0.635,-0.262 0.656,-0.326 1.031,-0.33 1.493,0 0.616,0.436 0.728,1.124 0.288,1.74 -0.217,0.307 -0.428,0.466 -0.761,0.579 -0.096,-0.171 -0.161,-0.255 -0.372,-0.487 z"
   id="path120" />

	</g>
    <circle
       fill="#ffffff"
       cx="23.288095"
       cy="79.936447"
       r="0.12250208"
       id="circle120"
       style="stroke-width:0.264583" />
    <circle
       fill="#ffffff"
       cx="25.178015"
       cy="78.224594"
       r="0.1222375"
       id="circle121"
       style="stroke-width:0.264583" />
    <circle
       fill="#ffffff"
       cx="30.339241"
       cy="76.976814"
       r="0.1222375"
       id="circle122"
       style="stroke-width:0.264583" />
    <circle
       fill="#ffffff"
       cx="32.461197"
       cy="77.507309"
       r="0.12250208"
       id="circle123"
       style="stroke-width:0.264583" />
    <circle
       fill="#ffffff"
       cx="36.002647"
       cy="80.202614"
       r="0.12250208"
       id="circle124"
       style="stroke-width:0.264583" />
    <path
       fill="#ffffff"
       d="m 37.587502,83.514406 c 0,0.068 -0.05477,0.123296 -0.123031,0.123296 -0.06694,0 -0.122238,-0.0553 -0.122238,-0.123296 0,-0.06747 0.0553,-0.121972 0.122238,-0.121972 0.06826,0 0.123031,0.0545 0.123031,0.121972 z"
       id="path124"
       style="stroke-width:0.264583" />
    <circle
       fill="#ffffff"
       cx="35.933853"
       cy="89.935051"
       r="0.1222375"
       id="circle125"
       style="stroke-width:0.264583" />
    <circle
       fill="#ffffff"
       cx="21.665407"
       cy="86.927002"
       r="0.12250208"
       id="circle126"
       style="stroke-width:0.264583" />
    <circle
       fill="#ffffff"
       cx="21.794258"
       cy="82.697372"
       r="0.12250208"
       id="circle127"
       style="stroke-width:0.264583" />
    <circle
       fill="#ffffff"
       cx="24.351721"
       cy="81.976646"
       r="0.1222375"
       id="circle128"
       style="stroke-width:0.264583" />
    <circle
       fill="#ffffff"
       cx="30.907038"
       cy="79.150101"
       r="0.12250208"
       id="circle129"
       style="stroke-width:0.264583" />
  </g>
</svg>
